<svg width="2044" height="2046" viewBox="0 0 2044 2046" fill="none" xmlns="http://www.w3.org/2000/svg">
<path d="M482.156 1022.75C482.156 721.28 723.899 477.253 1021.66 477.253C1319.41 477.253 1561.16 721.28 1561.16 1022.75C1561.16 1324.23 1319.41 1568.25 1021.66 1568.25C723.899 1568.25 482.156 1324.23 482.156 1022.75Z" stroke="white" stroke-width="40"/>
<path d="M591.452 523.268C581.638 504.266 579.063 486.768 583.728 470.773C588.366 454.727 598.754 442.536 614.893 434.201C625.461 428.742 636.292 426.347 647.386 427.014C658.48 427.681 668.579 431.401 677.683 438.174C686.811 444.868 694.333 453.942 700.249 465.395C706.245 477.004 709.266 488.6 709.313 500.183C709.36 511.765 706.312 522.144 700.169 531.318C693.999 540.44 685.942 547.568 675.999 552.704C665.222 558.27 654.247 560.641 643.072 559.818C631.897 558.994 621.798 555.209 612.773 548.461C603.748 541.713 596.641 533.316 591.452 523.268ZM607.191 515.436C614.316 529.232 623.632 538.203 635.139 542.35C646.67 546.419 658.032 545.562 669.225 539.781C680.626 533.893 687.927 525.044 691.127 513.236C694.378 501.401 692.2 488.116 684.59 473.383C679.777 464.064 673.995 456.763 667.243 451.479C660.517 446.117 653.126 443.108 645.073 442.453C637.044 441.72 629.255 443.303 621.706 447.201C610.982 452.74 603.65 461.209 599.712 472.608C595.798 483.928 598.291 498.204 607.191 515.436Z" fill="white"/>
<path d="M752.243 493.297L711.543 376.718L758.446 360.343C769.889 356.348 779.604 356.324 787.592 360.272C795.54 364.107 801.195 370.839 804.557 380.469C807.088 387.72 807.471 394.64 805.705 401.231C803.899 407.708 800.106 413.227 794.326 417.787L836.704 463.81L820.049 469.625L780.49 425.668L749.221 436.584L767.198 488.076L752.243 493.297ZM744.474 422.989L775.914 412.013C781.918 409.917 786.063 406.499 788.349 401.761C790.749 396.983 790.94 391.705 788.922 385.927C786.905 380.149 783.624 376.211 779.078 374.112C774.492 371.9 769.027 371.901 762.683 374.116L731.244 385.092L744.474 422.989Z" fill="white"/>
<path d="M862.034 453.15L841.096 326.016L857.92 323.245L878.858 450.38L862.034 453.15Z" fill="white"/>
<path d="M974.025 382.116L975.169 367.042L1029.6 371.086L1025.98 418.762C1017.12 424.788 1008.12 429.158 998.982 431.873C989.849 434.529 980.608 435.502 971.26 434.792C958.64 433.834 947.363 430.275 937.43 424.115C927.56 417.901 920.383 409.482 915.901 398.858C911.419 388.235 909.657 376.613 910.615 363.993C911.564 351.49 915.049 340.031 921.069 329.617C927.153 319.149 935.302 311.659 945.516 307.146C955.731 302.632 967.236 300.861 980.031 301.833C989.321 302.538 997.59 304.693 1004.84 308.299C1012.15 311.851 1017.73 316.477 1021.59 322.176C1025.45 327.874 1028.16 335.132 1029.72 343.947L1014.06 346.99C1012.63 340.3 1010.63 334.976 1008.05 331.02C1005.47 327.063 1001.61 323.773 996.458 321.149C991.314 318.467 985.5 316.88 979.015 316.387C971.244 315.798 964.434 316.485 958.585 318.45C952.74 320.357 947.919 323.106 944.12 326.696C940.381 330.29 937.371 334.322 935.093 338.791C931.218 346.489 928.928 354.982 928.223 364.272C927.353 375.723 928.583 385.454 931.912 393.463C935.3 401.477 940.62 407.639 947.873 411.951C955.126 416.262 962.989 418.739 971.46 419.383C978.822 419.941 986.115 419.085 993.339 416.813C1000.57 414.482 1006.11 411.847 1009.98 408.909L1011.8 384.984L974.025 382.116Z" fill="white"/>
<path d="M1073.97 431.92L1080.24 303.225L1097.27 304.054L1091 432.749L1073.97 431.92Z" fill="white"/>
<path d="M1133.23 444.056L1164.02 318.941L1181 323.12L1222.55 437.522L1246.72 339.289L1262.59 343.195L1231.81 468.311L1214.82 464.132L1173.3 349.645L1149.11 447.962L1133.23 444.056Z" fill="white"/>
<path d="M1249.98 479.89L1354.86 390.162L1371.01 398.91L1356.01 537.322L1338.93 528.071L1344.3 486.599L1296.93 460.94L1265.9 488.513L1249.98 479.89ZM1307.87 451.073L1346.28 471.877L1351.45 434.096C1353.01 422.611 1354.57 413.329 1356.14 406.249C1350.76 412.732 1344.82 418.843 1338.31 424.581L1307.87 451.073Z" fill="white"/>
<path d="M1371.73 556.945L1456.66 460.049L1469.48 471.288L1394.58 556.749L1442.3 598.576L1432.27 610.011L1371.73 556.945Z" fill="white"/>
<mask id="path-10-outside-1_214_1914" maskUnits="userSpaceOnUse" x="462.156" y="580.25" width="1133" height="830" fill="black">
<rect fill="white" x="462.156" y="580.25" width="1133" height="830"/>
<path d="M667.156 1010.25C636.489 1010.25 610.489 1003.75 589.156 990.75C567.823 977.416 551.656 958.75 540.656 934.75C529.656 910.75 524.156 882.75 524.156 850.75V819.25C524.156 787.25 528.989 759.416 538.656 735.749C548.656 711.75 563.489 693.25 583.156 680.249C602.823 666.916 627.489 660.249 657.156 660.249C682.489 660.249 703.656 665.249 720.656 675.249C737.656 684.916 750.156 697.916 758.156 714.25C766.489 730.249 769.989 747.749 768.656 766.749L710.156 781.25C713.489 747.916 709.989 722.416 699.656 704.75C689.656 686.749 674.656 677.749 654.656 677.749C633.323 677.749 616.823 686.749 605.156 704.75C593.823 722.749 588.156 752.583 588.156 794.25V875.75C588.156 917.083 594.656 946.916 607.656 965.25C620.656 983.583 640.489 992.75 667.156 992.75C678.156 992.75 688.323 990.75 697.656 986.75C707.323 982.75 715.323 975.916 721.656 966.25C728.323 956.25 732.489 942.25 734.156 924.25L770.156 933.75C765.489 952.416 757.989 967.416 747.656 978.75C737.323 990.083 725.156 998.25 711.156 1003.25C697.489 1007.92 682.823 1010.25 667.156 1010.25ZM760.996 765.749V751.749H853.996V792.75C874.329 762.083 898.496 746.75 926.496 746.75C936.829 746.75 946.829 750.083 956.496 756.75C966.163 763.083 974.163 775.083 980.496 792.75L935.996 816.75C931.329 803.083 925.829 793.916 919.496 789.25C913.496 784.25 906.996 781.749 899.996 781.749C892.663 781.749 885.496 784.083 878.496 788.749C871.496 793.416 864.329 802.083 856.996 814.75V963.25C856.996 974.583 857.496 981.416 858.496 983.75C859.496 985.75 862.663 987.083 867.996 987.75L905.496 991.25V1005.25H760.996V991.25L788.496 987.75C793.829 987.083 796.996 985.75 797.996 983.75C798.996 981.416 799.496 974.583 799.496 963.25V793.75C799.496 782.416 798.996 775.75 797.996 773.749C796.996 771.416 793.829 769.916 788.496 769.249L760.996 765.749ZM1204.51 992.75C1199.18 997.75 1192.68 1001.92 1185.01 1005.25C1177.68 1008.58 1168.68 1010.25 1158.01 1010.25C1144.34 1010.25 1132.84 1007.25 1123.51 1001.25C1114.51 995.25 1108.51 986.75 1105.51 975.75C1094.51 987.75 1082.34 996.583 1069.01 1002.25C1056.01 1007.58 1042.68 1010.25 1029.01 1010.25C1006.01 1010.25 988.845 1003.92 977.511 991.25C966.178 978.25 960.511 962.083 960.511 942.75C960.511 923.083 967.678 907.25 982.011 895.25C996.345 882.916 1021.68 876.75 1058.01 876.75H1103.51V836.249C1103.51 808.583 1099.84 789.749 1092.51 779.749C1085.51 769.416 1075.68 764.25 1063.01 764.25C1054.68 764.25 1047.01 766.416 1040.01 770.75C1033.01 774.75 1028.01 782.416 1025.01 793.75C1022.34 804.75 1022.84 820.75 1026.51 841.75L971.511 833.749C968.845 818.416 970.511 804.249 976.511 791.249C982.845 777.916 993.345 767.25 1008.01 759.25C1022.68 750.916 1041.34 746.75 1064.01 746.75C1089.68 746.75 1109.51 750.916 1123.51 759.25C1137.51 767.583 1147.18 778.583 1152.51 792.249C1158.18 805.916 1161.01 820.583 1161.01 836.249V951.75C1161.01 968.75 1162.51 979.416 1165.51 983.75C1168.51 988.083 1171.84 990.25 1175.51 990.25C1181.51 990.25 1188.18 986.75 1195.51 979.75L1204.51 992.75ZM1051.01 983.75C1059.68 983.75 1068.18 981.583 1076.51 977.25C1085.18 972.583 1094.18 964.083 1103.51 951.75V894.25H1066.01C1049.68 894.25 1037.84 898.083 1030.51 905.75C1023.18 913.416 1019.51 925.416 1019.51 941.75C1019.51 955.083 1022.18 965.416 1027.51 972.75C1032.84 980.083 1040.68 983.75 1051.01 983.75ZM1323.05 991.25V1005.25H1178.55V991.25L1206.05 987.75C1211.39 987.083 1214.55 985.75 1215.55 983.75C1216.55 981.416 1217.05 974.583 1217.05 963.25V793.75C1217.05 782.416 1216.55 775.75 1215.55 773.749C1214.55 771.416 1211.39 769.916 1206.05 769.249L1178.55 765.749V751.749H1217.05V734.75C1217.05 717.083 1220.39 700.249 1227.05 684.25C1234.05 668.249 1245.05 655.249 1260.05 645.249C1275.05 635.249 1294.72 630.249 1319.05 630.249C1344.72 630.249 1364.05 635.916 1377.05 647.25C1390.05 658.583 1398.39 673.083 1402.05 690.75C1405.05 689.083 1408.05 687.416 1411.05 685.749C1414.05 683.749 1416.89 681.916 1419.55 680.249H1433.05V751.749H1513.05V769.249H1433.05V935.75C1433.05 957.083 1435.72 971.916 1441.05 980.25C1446.39 988.25 1453.22 992.25 1461.55 992.25C1470.22 992.25 1476.89 988.916 1481.55 982.25C1486.55 975.583 1489.72 963.416 1491.05 945.75L1521.05 953.25C1516.72 973.583 1508.39 988.25 1496.05 997.25C1484.05 1005.92 1469.39 1010.25 1452.05 1010.25C1434.39 1010.25 1419.89 1006.42 1408.55 998.75C1397.22 990.75 1388.89 980.25 1383.55 967.25C1378.22 954.25 1375.55 940.416 1375.55 925.75V769.249H1274.55V963.25C1274.55 974.583 1275.05 981.416 1276.05 983.75C1277.05 985.75 1280.22 987.083 1285.55 987.75L1323.05 991.25ZM1274.55 724.749V751.749H1375.55V724.749C1375.55 695.416 1371.39 675.416 1363.05 664.749C1355.05 654.083 1342.89 648.749 1326.55 648.749C1316.55 648.749 1307.55 650.916 1299.55 655.249C1291.89 659.249 1285.72 666.749 1281.05 677.749C1276.72 688.416 1274.55 704.083 1274.55 724.749ZM512.656 1029.25V1015.25H650.656C677.323 1015.25 698.489 1018.92 714.156 1026.25C729.823 1033.58 740.989 1043.25 747.656 1055.25C754.656 1067.25 758.156 1080.58 758.156 1095.25V1108.75C758.156 1126.08 752.656 1141.08 741.656 1153.75C730.989 1166.08 715.323 1174.92 694.656 1180.25C719.989 1184.58 739.323 1193.58 752.656 1207.25C766.323 1220.92 773.156 1238.08 773.156 1258.75V1272.75C773.156 1287.75 769.656 1301.58 762.656 1314.25C755.656 1326.58 743.989 1336.58 727.656 1344.25C711.656 1351.58 690.156 1355.25 663.156 1355.25H512.656V1341.25L540.156 1337.75C545.489 1337.08 548.656 1335.75 549.656 1333.75C550.656 1331.42 551.156 1324.58 551.156 1313.25V1057.25C551.156 1045.92 550.656 1039.25 549.656 1037.25C548.656 1034.92 545.489 1033.42 540.156 1032.75L512.656 1029.25ZM650.656 1032.75H611.156V1172.75H650.656C664.989 1172.75 675.823 1167.92 683.156 1158.25C690.489 1148.25 694.156 1132.58 694.156 1111.25V1095.25C694.156 1073.58 690.489 1057.75 683.156 1047.75C675.823 1037.75 664.989 1032.75 650.656 1032.75ZM663.156 1190.25H611.156V1337.75H663.156C678.156 1337.75 689.489 1332.75 697.156 1322.75C705.156 1312.42 709.156 1295.75 709.156 1272.75V1256.25C709.156 1212.25 693.823 1190.25 663.156 1190.25ZM1025.76 1342.75C1020.43 1347.75 1013.93 1351.92 1006.26 1355.25C998.928 1358.58 989.928 1360.25 979.261 1360.25C965.595 1360.25 954.095 1357.25 944.761 1351.25C935.761 1345.25 929.761 1336.75 926.761 1325.75C915.761 1337.75 903.595 1346.58 890.261 1352.25C877.261 1357.58 863.928 1360.25 850.261 1360.25C827.261 1360.25 810.095 1353.92 798.761 1341.25C787.428 1328.25 781.761 1312.08 781.761 1292.75C781.761 1273.08 788.928 1257.25 803.261 1245.25C817.595 1232.92 842.928 1226.75 879.261 1226.75H924.761V1186.25C924.761 1158.58 921.095 1139.75 913.761 1129.75C906.761 1119.42 896.928 1114.25 884.261 1114.25C875.928 1114.25 868.261 1116.42 861.261 1120.75C854.261 1124.75 849.261 1132.42 846.261 1143.75C843.595 1154.75 844.095 1170.75 847.761 1191.75L792.761 1183.75C790.095 1168.42 791.761 1154.25 797.761 1141.25C804.095 1127.92 814.595 1117.25 829.261 1109.25C843.928 1100.92 862.595 1096.75 885.261 1096.75C910.928 1096.75 930.761 1100.92 944.761 1109.25C958.761 1117.58 968.428 1128.58 973.761 1142.25C979.428 1155.92 982.261 1170.58 982.261 1186.25V1301.75C982.261 1318.75 983.761 1329.42 986.761 1333.75C989.761 1338.08 993.095 1340.25 996.761 1340.25C1002.76 1340.25 1009.43 1336.75 1016.76 1329.75L1025.76 1342.75ZM872.261 1333.75C880.928 1333.75 889.428 1331.58 897.761 1327.25C906.428 1322.58 915.428 1314.08 924.761 1301.75V1244.25H887.261C870.928 1244.25 859.095 1248.08 851.761 1255.75C844.428 1263.42 840.761 1275.42 840.761 1291.75C840.761 1305.08 843.428 1315.42 848.761 1322.75C854.095 1330.08 861.928 1333.75 872.261 1333.75ZM1294.3 1341.25V1355.25H1159.8V1341.25L1187.3 1337.75C1192.64 1337.08 1195.8 1335.75 1196.8 1333.75C1197.8 1331.42 1198.3 1324.58 1198.3 1313.25V1187.25C1198.3 1164.25 1194.8 1147.58 1187.8 1137.25C1181.14 1126.58 1171.14 1121.25 1157.8 1121.25C1152.14 1121.25 1145.47 1122.75 1137.8 1125.75C1130.47 1128.42 1122.97 1133.42 1115.3 1140.75C1107.97 1148.08 1101.47 1158.92 1095.8 1173.25V1313.25C1095.8 1324.58 1096.3 1331.42 1097.3 1333.75C1098.3 1335.75 1101.47 1337.08 1106.8 1337.75L1134.3 1341.25V1355.25H999.804V1341.25L1027.3 1337.75C1032.64 1337.08 1035.8 1335.75 1036.8 1333.75C1037.8 1331.42 1038.3 1324.58 1038.3 1313.25V1143.75C1038.3 1132.42 1037.8 1125.75 1036.8 1123.75C1035.8 1121.42 1032.64 1119.92 1027.3 1119.25L999.804 1115.75V1101.75H1092.8V1145.75C1102.47 1128.75 1114.8 1116.42 1129.8 1108.75C1145.14 1100.75 1160.47 1096.75 1175.8 1096.75C1200.47 1096.75 1219.97 1104.58 1234.3 1120.25C1248.64 1135.92 1255.8 1158.08 1255.8 1186.75V1313.25C1255.8 1324.58 1256.3 1331.42 1257.3 1333.75C1258.3 1335.75 1261.47 1337.08 1266.8 1337.75L1294.3 1341.25ZM1544.33 1341.25V1355.25H1451.33V1313.75C1441.99 1329.08 1431.49 1340.75 1419.83 1348.75C1408.49 1356.42 1394.99 1360.25 1379.33 1360.25C1351.33 1360.25 1328.99 1349.25 1312.33 1327.25C1295.99 1304.92 1287.83 1273.75 1287.83 1233.75V1223.75C1287.83 1185.08 1297.33 1154.25 1316.33 1131.25C1335.66 1108.25 1361.99 1096.75 1395.33 1096.75C1415.33 1096.75 1432.99 1101.75 1448.33 1111.75V1027.25C1448.33 1015.92 1447.83 1009.25 1446.83 1007.25C1445.83 1004.92 1442.66 1003.42 1437.33 1002.75L1409.83 999.25V985.25H1505.83V1313.25C1505.83 1324.58 1506.33 1331.42 1507.33 1333.75C1508.33 1335.75 1511.49 1337.08 1516.83 1337.75L1544.33 1341.25ZM1349.33 1248.75C1349.33 1279.75 1353.16 1302.42 1360.83 1316.75C1368.49 1331.08 1378.99 1338.25 1392.33 1338.25C1400.66 1338.25 1409.33 1334.92 1418.33 1328.25C1427.66 1321.25 1437.66 1307.25 1448.33 1286.25V1135.25C1435.66 1122.58 1420.16 1116.25 1401.83 1116.25C1383.49 1116.25 1370.16 1124.58 1361.83 1141.25C1353.49 1157.58 1349.33 1180.08 1349.33 1208.75V1248.75Z"/>
</mask>
<path d="M667.156 1010.25C636.489 1010.25 610.489 1003.75 589.156 990.75C567.823 977.416 551.656 958.75 540.656 934.75C529.656 910.75 524.156 882.75 524.156 850.75V819.25C524.156 787.25 528.989 759.416 538.656 735.749C548.656 711.75 563.489 693.25 583.156 680.249C602.823 666.916 627.489 660.249 657.156 660.249C682.489 660.249 703.656 665.249 720.656 675.249C737.656 684.916 750.156 697.916 758.156 714.25C766.489 730.249 769.989 747.749 768.656 766.749L710.156 781.25C713.489 747.916 709.989 722.416 699.656 704.75C689.656 686.749 674.656 677.749 654.656 677.749C633.323 677.749 616.823 686.749 605.156 704.75C593.823 722.749 588.156 752.583 588.156 794.25V875.75C588.156 917.083 594.656 946.916 607.656 965.25C620.656 983.583 640.489 992.75 667.156 992.75C678.156 992.75 688.323 990.75 697.656 986.75C707.323 982.75 715.323 975.916 721.656 966.25C728.323 956.25 732.489 942.25 734.156 924.25L770.156 933.75C765.489 952.416 757.989 967.416 747.656 978.75C737.323 990.083 725.156 998.25 711.156 1003.25C697.489 1007.92 682.823 1010.25 667.156 1010.25ZM760.996 765.749V751.749H853.996V792.75C874.329 762.083 898.496 746.75 926.496 746.75C936.829 746.75 946.829 750.083 956.496 756.75C966.163 763.083 974.163 775.083 980.496 792.75L935.996 816.75C931.329 803.083 925.829 793.916 919.496 789.25C913.496 784.25 906.996 781.749 899.996 781.749C892.663 781.749 885.496 784.083 878.496 788.749C871.496 793.416 864.329 802.083 856.996 814.75V963.25C856.996 974.583 857.496 981.416 858.496 983.75C859.496 985.75 862.663 987.083 867.996 987.75L905.496 991.25V1005.25H760.996V991.25L788.496 987.75C793.829 987.083 796.996 985.75 797.996 983.75C798.996 981.416 799.496 974.583 799.496 963.25V793.75C799.496 782.416 798.996 775.75 797.996 773.749C796.996 771.416 793.829 769.916 788.496 769.249L760.996 765.749ZM1204.51 992.75C1199.18 997.75 1192.68 1001.92 1185.01 1005.25C1177.68 1008.58 1168.68 1010.25 1158.01 1010.25C1144.34 1010.25 1132.84 1007.25 1123.51 1001.25C1114.51 995.25 1108.51 986.75 1105.51 975.75C1094.51 987.75 1082.34 996.583 1069.01 1002.25C1056.01 1007.58 1042.68 1010.25 1029.01 1010.25C1006.01 1010.25 988.845 1003.92 977.511 991.25C966.178 978.25 960.511 962.083 960.511 942.75C960.511 923.083 967.678 907.25 982.011 895.25C996.345 882.916 1021.68 876.75 1058.01 876.75H1103.51V836.249C1103.51 808.583 1099.84 789.749 1092.51 779.749C1085.51 769.416 1075.68 764.25 1063.01 764.25C1054.68 764.25 1047.01 766.416 1040.01 770.75C1033.01 774.75 1028.01 782.416 1025.01 793.75C1022.34 804.75 1022.84 820.75 1026.51 841.75L971.511 833.749C968.845 818.416 970.511 804.249 976.511 791.249C982.845 777.916 993.345 767.25 1008.01 759.25C1022.68 750.916 1041.34 746.75 1064.01 746.75C1089.68 746.75 1109.51 750.916 1123.51 759.25C1137.51 767.583 1147.18 778.583 1152.51 792.249C1158.18 805.916 1161.01 820.583 1161.01 836.249V951.75C1161.01 968.75 1162.51 979.416 1165.51 983.75C1168.51 988.083 1171.84 990.25 1175.51 990.25C1181.51 990.25 1188.18 986.75 1195.51 979.75L1204.51 992.75ZM1051.01 983.75C1059.68 983.75 1068.18 981.583 1076.51 977.25C1085.18 972.583 1094.18 964.083 1103.51 951.75V894.25H1066.01C1049.68 894.25 1037.84 898.083 1030.51 905.75C1023.18 913.416 1019.51 925.416 1019.51 941.75C1019.51 955.083 1022.18 965.416 1027.51 972.75C1032.84 980.083 1040.68 983.75 1051.01 983.75ZM1323.05 991.25V1005.25H1178.55V991.25L1206.05 987.75C1211.39 987.083 1214.55 985.75 1215.55 983.75C1216.55 981.416 1217.05 974.583 1217.05 963.25V793.75C1217.05 782.416 1216.55 775.75 1215.55 773.749C1214.55 771.416 1211.39 769.916 1206.05 769.249L1178.55 765.749V751.749H1217.05V734.75C1217.05 717.083 1220.39 700.249 1227.05 684.25C1234.05 668.249 1245.05 655.249 1260.05 645.249C1275.05 635.249 1294.72 630.249 1319.05 630.249C1344.72 630.249 1364.05 635.916 1377.05 647.25C1390.05 658.583 1398.39 673.083 1402.05 690.75C1405.05 689.083 1408.05 687.416 1411.05 685.749C1414.05 683.749 1416.89 681.916 1419.55 680.249H1433.05V751.749H1513.05V769.249H1433.05V935.75C1433.05 957.083 1435.72 971.916 1441.05 980.25C1446.39 988.25 1453.22 992.25 1461.55 992.25C1470.22 992.25 1476.89 988.916 1481.55 982.25C1486.55 975.583 1489.72 963.416 1491.05 945.75L1521.05 953.25C1516.72 973.583 1508.39 988.25 1496.05 997.25C1484.05 1005.92 1469.39 1010.25 1452.05 1010.25C1434.39 1010.25 1419.89 1006.42 1408.55 998.75C1397.22 990.75 1388.89 980.25 1383.55 967.25C1378.22 954.25 1375.55 940.416 1375.55 925.75V769.249H1274.55V963.25C1274.55 974.583 1275.05 981.416 1276.05 983.75C1277.05 985.75 1280.22 987.083 1285.55 987.75L1323.05 991.25ZM1274.55 724.749V751.749H1375.55V724.749C1375.55 695.416 1371.39 675.416 1363.05 664.749C1355.05 654.083 1342.89 648.749 1326.55 648.749C1316.55 648.749 1307.55 650.916 1299.55 655.249C1291.89 659.249 1285.72 666.749 1281.05 677.749C1276.72 688.416 1274.55 704.083 1274.55 724.749ZM512.656 1029.25V1015.25H650.656C677.323 1015.25 698.489 1018.92 714.156 1026.25C729.823 1033.58 740.989 1043.25 747.656 1055.25C754.656 1067.25 758.156 1080.58 758.156 1095.25V1108.75C758.156 1126.08 752.656 1141.08 741.656 1153.75C730.989 1166.08 715.323 1174.92 694.656 1180.25C719.989 1184.58 739.323 1193.58 752.656 1207.25C766.323 1220.92 773.156 1238.08 773.156 1258.75V1272.75C773.156 1287.75 769.656 1301.58 762.656 1314.25C755.656 1326.58 743.989 1336.58 727.656 1344.25C711.656 1351.58 690.156 1355.25 663.156 1355.25H512.656V1341.25L540.156 1337.75C545.489 1337.08 548.656 1335.75 549.656 1333.75C550.656 1331.42 551.156 1324.58 551.156 1313.25V1057.25C551.156 1045.92 550.656 1039.25 549.656 1037.25C548.656 1034.92 545.489 1033.42 540.156 1032.75L512.656 1029.25ZM650.656 1032.75H611.156V1172.75H650.656C664.989 1172.75 675.823 1167.92 683.156 1158.25C690.489 1148.25 694.156 1132.58 694.156 1111.25V1095.25C694.156 1073.58 690.489 1057.75 683.156 1047.75C675.823 1037.75 664.989 1032.75 650.656 1032.75ZM663.156 1190.25H611.156V1337.75H663.156C678.156 1337.75 689.489 1332.75 697.156 1322.75C705.156 1312.42 709.156 1295.75 709.156 1272.75V1256.25C709.156 1212.25 693.823 1190.25 663.156 1190.25ZM1025.76 1342.75C1020.43 1347.75 1013.93 1351.92 1006.26 1355.25C998.928 1358.58 989.928 1360.25 979.261 1360.25C965.595 1360.25 954.095 1357.25 944.761 1351.25C935.761 1345.25 929.761 1336.75 926.761 1325.75C915.761 1337.75 903.595 1346.58 890.261 1352.25C877.261 1357.58 863.928 1360.25 850.261 1360.25C827.261 1360.25 810.095 1353.92 798.761 1341.25C787.428 1328.25 781.761 1312.08 781.761 1292.75C781.761 1273.08 788.928 1257.25 803.261 1245.25C817.595 1232.92 842.928 1226.75 879.261 1226.75H924.761V1186.25C924.761 1158.58 921.095 1139.75 913.761 1129.75C906.761 1119.42 896.928 1114.25 884.261 1114.25C875.928 1114.25 868.261 1116.42 861.261 1120.75C854.261 1124.75 849.261 1132.42 846.261 1143.75C843.595 1154.75 844.095 1170.75 847.761 1191.75L792.761 1183.75C790.095 1168.42 791.761 1154.25 797.761 1141.25C804.095 1127.92 814.595 1117.25 829.261 1109.25C843.928 1100.92 862.595 1096.75 885.261 1096.75C910.928 1096.75 930.761 1100.92 944.761 1109.25C958.761 1117.58 968.428 1128.58 973.761 1142.25C979.428 1155.92 982.261 1170.58 982.261 1186.25V1301.75C982.261 1318.75 983.761 1329.42 986.761 1333.75C989.761 1338.08 993.095 1340.25 996.761 1340.25C1002.76 1340.25 1009.43 1336.75 1016.76 1329.75L1025.76 1342.75ZM872.261 1333.75C880.928 1333.75 889.428 1331.58 897.761 1327.25C906.428 1322.58 915.428 1314.08 924.761 1301.75V1244.25H887.261C870.928 1244.25 859.095 1248.08 851.761 1255.75C844.428 1263.42 840.761 1275.42 840.761 1291.75C840.761 1305.08 843.428 1315.42 848.761 1322.75C854.095 1330.08 861.928 1333.75 872.261 1333.75ZM1294.3 1341.25V1355.25H1159.8V1341.25L1187.3 1337.75C1192.64 1337.08 1195.8 1335.75 1196.8 1333.75C1197.8 1331.42 1198.3 1324.58 1198.3 1313.25V1187.25C1198.3 1164.25 1194.8 1147.58 1187.8 1137.25C1181.14 1126.58 1171.14 1121.25 1157.8 1121.25C1152.14 1121.25 1145.47 1122.75 1137.8 1125.75C1130.47 1128.42 1122.97 1133.42 1115.3 1140.75C1107.97 1148.08 1101.47 1158.92 1095.8 1173.25V1313.25C1095.8 1324.58 1096.3 1331.42 1097.3 1333.75C1098.3 1335.75 1101.47 1337.08 1106.8 1337.75L1134.3 1341.25V1355.25H999.804V1341.25L1027.3 1337.75C1032.64 1337.08 1035.8 1335.75 1036.8 1333.75C1037.8 1331.42 1038.3 1324.58 1038.3 1313.25V1143.75C1038.3 1132.42 1037.8 1125.75 1036.8 1123.75C1035.8 1121.42 1032.64 1119.92 1027.3 1119.25L999.804 1115.75V1101.75H1092.8V1145.75C1102.47 1128.75 1114.8 1116.42 1129.8 1108.75C1145.14 1100.75 1160.47 1096.75 1175.8 1096.75C1200.47 1096.75 1219.97 1104.58 1234.3 1120.25C1248.64 1135.92 1255.8 1158.08 1255.8 1186.75V1313.25C1255.8 1324.58 1256.3 1331.42 1257.3 1333.75C1258.3 1335.75 1261.47 1337.08 1266.8 1337.75L1294.3 1341.25ZM1544.33 1341.25V1355.25H1451.33V1313.75C1441.99 1329.08 1431.49 1340.75 1419.83 1348.75C1408.49 1356.42 1394.99 1360.25 1379.33 1360.25C1351.33 1360.25 1328.99 1349.25 1312.33 1327.25C1295.99 1304.92 1287.83 1273.75 1287.83 1233.75V1223.75C1287.83 1185.08 1297.33 1154.25 1316.33 1131.25C1335.66 1108.25 1361.99 1096.75 1395.33 1096.75C1415.33 1096.75 1432.99 1101.75 1448.33 1111.75V1027.25C1448.33 1015.92 1447.83 1009.25 1446.83 1007.25C1445.83 1004.92 1442.66 1003.42 1437.33 1002.75L1409.83 999.25V985.25H1505.83V1313.25C1505.83 1324.58 1506.33 1331.42 1507.33 1333.75C1508.33 1335.75 1511.49 1337.08 1516.83 1337.75L1544.33 1341.25ZM1349.33 1248.75C1349.33 1279.75 1353.16 1302.42 1360.83 1316.75C1368.49 1331.08 1378.99 1338.25 1392.33 1338.25C1400.66 1338.25 1409.33 1334.92 1418.33 1328.25C1427.66 1321.25 1437.66 1307.25 1448.33 1286.25V1135.25C1435.66 1122.58 1420.16 1116.25 1401.83 1116.25C1383.49 1116.25 1370.16 1124.58 1361.83 1141.25C1353.49 1157.58 1349.33 1180.08 1349.33 1208.75V1248.75Z" fill="#DEA839"/>
<path d="M589.156 990.75L562.656 1033.15L562.896 1033.3L563.138 1033.45L589.156 990.75ZM540.656 934.75L586.109 913.917V913.917L540.656 934.75ZM538.656 735.749L492.502 716.519L492.435 716.681L492.368 716.843L538.656 735.749ZM583.156 680.249L610.728 721.96L610.972 721.799L611.214 721.635L583.156 680.249ZM720.656 675.25L695.305 718.346L695.622 718.532L695.941 718.714L720.656 675.25ZM758.156 714.25L713.253 736.243L713.525 736.798L713.81 737.346L758.156 714.25ZM768.656 766.749L780.685 815.281L815.987 806.531L818.533 770.25L768.656 766.749ZM710.156 781.25L660.404 776.274L653.347 846.843L722.185 829.781L710.156 781.25ZM699.656 704.75L655.948 729.032L656.217 729.516L656.497 729.994L699.656 704.75ZM605.156 704.75L563.198 677.555L563.02 677.831L562.844 678.109L605.156 704.75ZM607.656 965.25L648.443 936.328V936.328L607.656 965.25ZM697.656 986.75L678.538 940.549L678.248 940.669L677.96 940.792L697.656 986.75ZM721.656 966.25L680.054 938.514L679.943 938.681L679.833 938.848L721.656 966.25ZM734.156 924.25L746.914 875.904L689.814 860.836L684.369 919.64L734.156 924.25ZM770.156 933.75L818.663 945.876L830.633 897.997L782.914 885.404L770.156 933.75ZM747.656 978.75L710.708 945.062L710.708 945.062L747.656 978.75ZM711.156 1003.25L727.313 1050.57L727.644 1050.45L727.973 1050.34L711.156 1003.25ZM667.156 1010.25V960.25C643.582 960.25 627.062 955.296 615.175 948.052L589.156 990.75L563.138 1033.45C593.917 1052.2 629.396 1060.25 667.156 1060.25V1010.25ZM589.156 990.75L615.656 948.35C603.035 940.461 593.248 929.492 586.109 913.917L540.656 934.75L495.203 955.582C510.064 988.007 532.611 1014.37 562.656 1033.15L589.156 990.75ZM540.656 934.75L586.109 913.917C578.671 897.689 574.156 877.055 574.156 850.75H524.156H474.156C474.156 888.444 480.641 923.81 495.203 955.582L540.656 934.75ZM524.156 850.75H574.156V819.25H524.156H474.156V850.75H524.156ZM524.156 819.25H574.156C574.156 792.158 578.261 771.017 584.944 754.656L538.656 735.749L492.368 716.843C479.718 747.815 474.156 782.341 474.156 819.25H524.156ZM538.656 735.749L584.81 754.98C591.397 739.171 600.197 728.921 610.728 721.96L583.156 680.249L555.584 638.539C526.781 657.578 505.915 684.328 492.502 716.519L538.656 735.749ZM583.156 680.249L611.214 721.635C620.75 715.169 634.997 710.249 657.156 710.249V660.249V610.249C619.982 610.249 584.895 618.663 555.098 638.864L583.156 680.249ZM657.156 660.249V710.249C676.062 710.249 687.881 713.979 695.305 718.346L720.656 675.25L746.007 632.153C719.431 616.52 688.917 610.249 657.156 610.249V660.249ZM720.656 675.25L695.941 718.714C704.898 723.807 710.009 729.62 713.253 736.243L758.156 714.25L803.059 692.256C790.303 666.212 770.414 646.025 745.371 631.785L720.656 675.25ZM758.156 714.25L713.81 737.346C717.639 744.697 719.504 752.919 718.779 763.249L768.656 766.749L818.533 770.25C820.475 742.58 815.34 715.802 802.502 691.153L758.156 714.25ZM768.656 766.749L756.627 718.218L698.127 732.718L710.156 781.25L722.185 829.781L780.685 815.281L768.656 766.749ZM710.156 781.25L759.908 786.225C763.681 748.496 760.922 710.462 742.815 679.505L699.656 704.75L656.497 729.994C659.056 734.37 663.298 747.337 660.404 776.274L710.156 781.25ZM699.656 704.75L743.364 680.467C734.864 665.167 722.889 651.38 706.631 641.625C690.298 631.825 672.394 627.749 654.656 627.749V677.749V727.749C655.898 727.749 656.366 727.887 656.266 727.862C656.222 727.85 656.08 727.81 655.866 727.721C655.652 727.632 655.416 727.515 655.181 727.374C654.669 727.067 654.453 726.824 654.53 726.907C654.636 727.021 655.165 727.621 655.948 729.032L699.656 704.75ZM654.656 677.749V627.749C616.263 627.749 584.021 645.428 563.198 677.555L605.156 704.75L647.114 731.944C648.136 730.367 648.94 729.484 649.412 729.032C649.863 728.6 650.126 728.448 650.224 728.394C650.321 728.341 650.571 728.214 651.134 728.08C651.725 727.939 652.846 727.749 654.656 727.749V677.749ZM605.156 704.75L562.844 678.109C543.602 708.67 538.156 750.661 538.156 794.249H588.156H638.156C638.156 754.504 644.043 736.829 647.468 731.39L605.156 704.75ZM588.156 794.249H538.156V875.75H588.156H638.156V794.249H588.156ZM588.156 875.75H538.156C538.156 919.919 544.641 962.824 566.869 994.171L607.656 965.25L648.443 936.328C644.671 931.009 638.156 914.246 638.156 875.75H588.156ZM607.656 965.25L566.869 994.171C591.075 1028.31 627.727 1042.75 667.156 1042.75V992.75V942.75C653.252 942.75 650.237 938.859 648.443 936.328L607.656 965.25ZM667.156 992.75V1042.75C684.358 1042.75 701.292 1039.59 717.352 1032.71L697.656 986.75L677.96 940.792C675.354 941.909 671.954 942.75 667.156 942.75V992.75ZM697.656 986.75L716.774 1032.95C736.69 1024.71 752.24 1010.81 763.479 993.651L721.656 966.25L679.833 938.848C679.01 940.104 678.493 940.554 678.432 940.606C678.39 940.642 678.401 940.628 678.456 940.594C678.511 940.56 678.548 940.545 678.538 940.549L697.656 986.75ZM721.656 966.25L763.259 993.985C776.277 974.457 781.866 951.294 783.943 928.859L734.156 924.25L684.369 919.64C683.113 933.205 680.369 938.042 680.054 938.514L721.656 966.25ZM734.156 924.25L721.398 972.595L757.398 982.095L770.156 933.75L782.914 885.404L746.914 875.904L734.156 924.25ZM770.156 933.75L721.649 921.623C718.489 934.263 714.218 941.213 710.708 945.062L747.656 978.75L784.604 1012.44C801.761 993.62 812.49 970.57 818.663 945.876L770.156 933.75ZM747.656 978.75L710.708 945.062C705.706 950.548 700.384 954.004 694.339 956.162L711.156 1003.25L727.973 1050.34C749.928 1042.5 768.939 1029.62 784.604 1012.44L747.656 978.75ZM711.156 1003.25L694.999 955.932C686.957 958.678 677.792 960.25 667.156 960.25V1010.25V1060.25C687.853 1060.25 708.022 1057.15 727.313 1050.57L711.156 1003.25ZM760.996 765.749H710.996V809.789L754.683 815.349L760.996 765.749ZM760.996 751.749V701.75H710.996V751.749H760.996ZM853.996 751.749H903.996V701.75H853.996V751.749ZM853.996 792.75H803.996V958.639L895.668 820.38L853.996 792.75ZM956.496 756.75L928.109 797.91L928.598 798.247L929.095 798.573L956.496 756.75ZM980.496 792.75L1004.23 836.757L1042.07 816.348L1027.56 775.876L980.496 792.75ZM935.996 816.75L888.678 832.907L907.759 888.787L959.73 860.757L935.996 816.75ZM919.496 789.25L887.487 827.661L888.634 828.617L889.836 829.502L919.496 789.25ZM856.996 814.75L813.725 789.698L806.996 801.32V814.75H856.996ZM858.496 983.75L812.539 1003.45L813.117 1004.8L813.775 1006.11L858.496 983.75ZM867.996 987.75L861.794 1037.36L862.57 1037.46L863.349 1037.53L867.996 987.75ZM905.496 991.25H955.496V945.699L910.142 941.466L905.496 991.25ZM905.496 1005.25V1055.25H955.496V1005.25H905.496ZM760.996 1005.25H710.996V1055.25H760.996V1005.25ZM760.996 991.25L754.683 941.65L710.996 947.21V991.25H760.996ZM788.496 987.75L782.294 938.136L782.239 938.143L782.183 938.15L788.496 987.75ZM797.996 983.75L842.717 1006.11L843.374 1004.8L843.953 1003.45L797.996 983.75ZM797.996 773.749L752.039 793.445L752.617 794.796L753.274 796.11L797.996 773.749ZM788.496 769.249L782.183 818.849L782.239 818.856L782.294 818.863L788.496 769.249ZM760.996 765.749H810.996V751.749H760.996H710.996V765.749H760.996ZM760.996 751.749V801.749H853.996V751.749V701.75H760.996V751.749ZM853.996 751.749H803.996V792.75H853.996H903.996V751.749H853.996ZM853.996 792.75L895.668 820.38C909.983 798.79 920.384 796.749 926.496 796.749V746.75V696.75C876.608 696.75 838.675 725.376 812.324 765.119L853.996 792.75ZM926.496 746.75V796.749C926.378 796.749 926.235 796.739 926.095 796.716C925.956 796.693 925.896 796.671 925.934 796.684C925.992 796.703 926.716 796.949 928.109 797.91L956.496 756.75L984.883 715.589C968.048 703.979 948.312 696.75 926.496 696.75V746.75ZM956.496 756.75L929.095 798.573C927.083 797.255 926.983 796.494 928.143 798.235C929.328 800.012 931.248 803.538 933.429 809.623L980.496 792.75L1027.56 775.876C1019.67 753.857 1006.77 729.914 983.897 714.926L956.496 756.75ZM980.496 792.75L956.761 748.742L912.261 772.742L935.996 816.75L959.73 860.757L1004.23 836.757L980.496 792.75ZM935.996 816.75L983.313 800.592C977.732 784.248 968.099 762.955 949.156 748.997L919.496 789.25L889.836 829.502C887.921 828.091 886.713 826.818 886.094 826.095C885.48 825.377 885.315 825.048 885.496 825.349C885.672 825.643 886.082 826.377 886.663 827.681C887.24 828.976 887.923 830.695 888.678 832.907L935.996 816.75ZM919.496 789.25L951.505 750.838C937.628 739.274 920.058 731.75 899.996 731.75V781.749V831.749C897.391 831.749 894.68 831.256 892.172 830.292C889.735 829.355 888.185 828.242 887.487 827.661L919.496 789.25ZM899.996 781.749V731.75C881.395 731.75 864.73 737.834 850.761 747.147L878.496 788.749L906.231 830.352C906.37 830.259 905.824 830.645 904.6 831.043C903.325 831.458 901.732 831.749 899.996 831.749V781.749ZM878.496 788.749L850.761 747.147C834.287 758.13 822.454 774.619 813.725 789.698L856.996 814.75L900.267 839.801C902.935 835.193 905.02 832.285 906.403 830.613C907.856 828.856 907.887 829.248 906.231 830.352L878.496 788.749ZM856.996 814.75H806.996V963.25H856.996H906.996V814.75H856.996ZM856.996 963.25H806.996C806.996 969.459 807.127 975.367 807.504 980.523C807.694 983.113 808.281 993.511 812.539 1003.45L858.496 983.75L904.453 964.053C905.098 965.558 905.56 966.86 905.883 967.859C906.211 968.871 906.449 969.734 906.617 970.399C906.943 971.69 907.111 972.64 907.183 973.081C907.261 973.558 907.288 973.813 907.285 973.784C907.283 973.768 907.264 973.591 907.238 973.226C907.182 972.472 907.119 971.27 907.071 969.53C907.023 967.813 906.996 965.731 906.996 963.25H856.996ZM858.496 983.75L813.775 1006.11C821.83 1022.22 835.285 1029.41 842.218 1032.33C849.694 1035.48 856.835 1036.74 861.794 1037.36L867.996 987.75L874.198 938.136C874.244 938.141 874.844 938.216 875.854 938.454C876.819 938.681 878.662 939.173 881.024 940.168C884.79 941.754 896.161 947.277 903.217 961.389L858.496 983.75ZM867.996 987.75L863.349 1037.53L900.849 1041.03L905.496 991.25L910.142 941.466L872.642 937.966L867.996 987.75ZM905.496 991.25H855.496V1005.25H905.496H955.496V991.25H905.496ZM905.496 1005.25V955.25H760.996V1005.25V1055.25H905.496V1005.25ZM760.996 1005.25H810.996V991.25H760.996H710.996V1005.25H760.996ZM760.996 991.25L767.309 1040.85L794.809 1037.35L788.496 987.75L782.183 938.15L754.683 941.65L760.996 991.25ZM788.496 987.75L794.698 1037.36C799.656 1036.74 806.797 1035.48 814.274 1032.33C821.207 1029.41 834.661 1022.22 842.717 1006.11L797.996 983.75L753.274 961.389C760.33 947.277 771.702 941.754 775.468 940.168C777.83 939.173 779.672 938.681 780.638 938.454C781.648 938.216 782.247 938.141 782.294 938.136L788.496 987.75ZM797.996 983.75L843.953 1003.45C848.211 993.511 848.798 983.113 848.988 980.523C849.365 975.367 849.496 969.459 849.496 963.25H799.496H749.496C749.496 965.731 749.468 967.813 749.421 969.53C749.373 971.27 749.309 972.472 749.254 973.226C749.227 973.591 749.209 973.768 749.207 973.784C749.204 973.813 749.23 973.558 749.308 973.081C749.381 972.64 749.548 971.69 749.875 970.399C750.043 969.735 750.281 968.871 750.608 967.859C750.932 966.86 751.394 965.558 752.039 964.054L797.996 983.75ZM799.496 963.25H849.496V793.75H799.496H749.496V963.25H799.496ZM799.496 793.75H849.496C849.496 787.563 849.366 781.647 848.981 776.51C848.79 773.971 848.483 770.854 847.92 767.597C847.54 765.405 846.358 758.671 842.717 751.389L797.996 773.749L753.274 796.11C752.307 794.176 751.633 792.493 751.177 791.236C750.713 789.957 750.382 788.864 750.153 788.035C749.709 786.428 749.483 785.221 749.385 784.652C749.277 784.03 749.235 783.657 749.23 783.614C749.223 783.553 749.237 783.667 749.261 783.989C749.311 784.659 749.374 785.798 749.421 787.513C749.468 789.2 749.496 791.267 749.496 793.75H799.496ZM797.996 773.749L843.953 754.054C837.091 738.042 824.679 729.668 816.275 725.688C808.048 721.791 800.134 720.315 794.698 719.636L788.496 769.249L782.294 818.863C782.191 818.851 778.527 818.458 773.467 816.061C768.229 813.581 757.901 807.123 752.039 793.445L797.996 773.749ZM788.496 769.249L794.809 719.65L767.309 716.15L760.996 765.749L754.683 815.349L782.183 818.849L788.496 769.249ZM1204.51 992.75L1238.71 1029.23L1270.16 999.738L1245.62 964.289L1204.51 992.75ZM1185.01 1005.25L1165.08 959.396L1164.7 959.56L1164.32 959.731L1185.01 1005.25ZM1123.51 1001.25L1095.78 1042.85L1096.12 1043.08L1096.47 1043.31L1123.51 1001.25ZM1105.51 975.75L1153.75 962.594L1129.9 875.148L1068.65 941.963L1105.51 975.75ZM1069.01 1002.25L1087.99 1048.51L1088.28 1048.39L1088.57 1048.27L1069.01 1002.25ZM977.511 991.25L939.823 1024.11L940.035 1024.35L940.249 1024.59L977.511 991.25ZM982.011 895.25L1014.11 933.587L1014.37 933.37L1014.62 933.15L982.011 895.25ZM1103.51 876.75V926.75H1153.51V876.75H1103.51ZM1092.51 779.749L1051.12 807.792L1051.64 808.565L1052.19 809.318L1092.51 779.749ZM1040.01 770.75L1064.82 814.162L1065.58 813.725L1066.33 813.263L1040.01 770.75ZM1025.01 793.75L976.676 780.955L976.542 781.461L976.419 781.969L1025.01 793.75ZM1026.51 841.749L1019.31 891.229L1087.64 901.167L1075.77 833.149L1026.51 841.749ZM971.511 833.749L922.251 842.317L928.459 878.013L964.314 883.229L971.511 833.749ZM976.511 791.249L931.348 769.797L931.229 770.046L931.113 770.297L976.511 791.249ZM1008.01 759.25L1031.95 803.144L1032.33 802.937L1032.71 802.722L1008.01 759.25ZM1123.51 759.25L1097.94 802.214L1123.51 759.25ZM1152.51 792.249L1105.93 810.427L1106.12 810.915L1106.32 811.4L1152.51 792.249ZM1195.51 979.75L1236.62 951.289L1203.31 903.179L1160.99 943.582L1195.51 979.75ZM1076.51 977.25L1099.58 1021.61L1099.9 1021.44L1100.22 1021.27L1076.51 977.25ZM1103.51 951.75L1143.38 981.922L1153.51 968.536V951.75H1103.51ZM1103.51 894.25H1153.51V844.249H1103.51V894.25ZM1030.51 905.75L994.379 871.188V871.188L1030.51 905.75ZM1027.51 972.75L1067.95 943.341H1067.95L1027.51 972.75ZM1204.51 992.75L1170.31 956.273C1169.72 956.834 1168.23 958.024 1165.08 959.396L1185.01 1005.25L1204.95 1051.1C1217.13 1045.81 1228.64 1038.66 1238.71 1029.23L1204.51 992.75ZM1185.01 1005.25L1164.32 959.731C1165.23 959.318 1163.74 960.25 1158.01 960.25V1010.25V1060.25C1173.61 1060.25 1190.13 1057.85 1205.7 1050.77L1185.01 1005.25ZM1158.01 1010.25V960.25C1151.7 960.25 1150.13 958.92 1150.55 959.191L1123.51 1001.25L1096.47 1043.31C1115.56 1055.58 1136.99 1060.25 1158.01 1060.25V1010.25ZM1123.51 1001.25L1151.25 959.647C1151.66 959.923 1152.42 960.565 1153.11 961.54C1153.77 962.481 1153.86 963.015 1153.75 962.594L1105.51 975.75L1057.27 988.905C1063.26 1010.87 1076.16 1029.77 1095.78 1042.85L1123.51 1001.25ZM1105.51 975.75L1068.65 941.963C1061.88 949.351 1055.44 953.687 1049.45 956.233L1069.01 1002.25L1088.57 1048.27C1109.25 1039.48 1127.14 1026.15 1142.37 1009.54L1105.51 975.75ZM1069.01 1002.25L1050.03 955.991C1042.88 958.925 1035.98 960.25 1029.01 960.25V1010.25V1060.25C1049.37 1060.25 1069.14 1056.24 1087.99 1048.51L1069.01 1002.25ZM1029.01 1010.25V960.25C1021.96 960.25 1018.02 959.263 1016.19 958.59C1015.32 958.269 1014.93 958.021 1014.84 957.96C1014.79 957.923 1014.77 957.908 1014.78 957.914C1014.78 957.92 1014.79 957.923 1014.77 957.91L977.511 991.25L940.249 1024.59C964.084 1051.23 997.043 1060.25 1029.01 1060.25V1010.25ZM977.511 991.25L1015.2 958.393C1012.78 955.612 1010.51 951.568 1010.51 942.75H960.511H910.511C910.511 972.598 919.58 1000.89 939.823 1024.11L977.511 991.25ZM960.511 942.75H1010.51C1010.51 939.091 1011.15 937.379 1011.44 936.742C1011.69 936.176 1012.26 935.138 1014.11 933.587L982.011 895.25L949.915 856.912C923.574 878.964 910.511 909.167 910.511 942.75H960.511ZM982.011 895.25L1014.62 933.15C1013.97 933.71 1015.84 931.841 1023.59 929.956C1031.2 928.102 1042.4 926.75 1058.01 926.75V876.75V826.75C1019.27 826.75 978.085 832.666 949.399 857.349L982.011 895.25ZM1058.01 876.75V926.75H1103.51V876.75V826.75H1058.01V876.75ZM1103.51 876.75H1153.51V836.249H1103.51H1053.51V876.75H1103.51ZM1103.51 836.249H1153.51C1153.51 820.484 1152.49 805.428 1149.84 791.819C1147.29 778.735 1142.59 763.488 1132.83 750.181L1092.51 779.749L1052.19 809.318C1049.77 806.011 1050.56 805.181 1051.68 810.93C1052.7 816.155 1053.51 824.349 1053.51 836.249H1103.51ZM1092.51 779.749L1133.91 751.707C1117.44 727.398 1091.97 714.25 1063.01 714.25V764.249V814.249C1062.39 814.249 1059.84 814.072 1056.63 812.387C1053.39 810.686 1051.65 808.588 1051.12 807.792L1092.51 779.749ZM1063.01 764.249V714.25C1045.5 714.25 1028.7 718.946 1013.69 728.236L1040.01 770.75L1066.33 813.263C1066 813.464 1065.4 813.765 1064.61 813.99C1063.82 814.213 1063.23 814.249 1063.01 814.249V764.249ZM1040.01 770.75L1015.2 727.337C992.18 740.494 981.542 762.571 976.676 780.955L1025.01 793.75L1073.35 806.544C1073.85 804.657 1073.99 805.13 1072.89 806.813C1071.65 808.718 1069.09 811.722 1064.82 814.162L1040.01 770.75ZM1025.01 793.75L976.419 781.969C971.269 803.215 973.269 827.509 977.257 850.35L1026.51 841.749L1075.77 833.149C1074.21 824.264 1073.52 817.452 1073.36 812.438C1073.2 807.232 1073.67 805.277 1073.6 805.53L1025.01 793.75ZM1026.51 841.749L1033.71 792.27L978.708 784.27L971.511 833.749L964.314 883.229L1019.31 891.229L1026.51 841.749ZM971.511 833.749L1020.77 825.182C1019.69 818.94 1020.54 815.176 1021.91 812.202L976.511 791.249L931.113 770.297C920.486 793.323 918.003 817.892 922.251 842.317L971.511 833.749ZM976.511 791.249L1021.68 812.702C1022.9 810.133 1025.28 806.785 1031.95 803.144L1008.01 759.25L984.069 715.355C961.411 727.714 942.794 745.699 931.348 769.797L976.511 791.249ZM1008.01 759.25L1032.71 802.722C1037.7 799.889 1047.14 796.749 1064.01 796.749V746.75V696.75C1035.55 696.75 1007.66 701.943 983.311 715.777L1008.01 759.25ZM1064.01 746.75V796.749C1085.39 796.749 1094.91 800.413 1097.94 802.214L1123.51 759.25L1149.09 716.285C1124.11 701.419 1093.97 696.75 1064.01 696.75V746.75ZM1123.51 759.25L1097.94 802.214C1103.49 805.519 1105.1 808.281 1105.93 810.427L1152.51 792.249L1199.09 774.072C1189.26 748.885 1171.53 729.646 1149.09 716.285L1123.51 759.25ZM1152.51 792.249L1106.32 811.4C1109.33 818.643 1111.01 826.762 1111.01 836.249H1161.01H1211.01C1211.01 814.404 1207.03 793.189 1198.7 773.099L1152.51 792.249ZM1161.01 836.249H1111.01V951.75H1161.01H1211.01V836.249H1161.01ZM1161.01 951.75H1111.01C1111.01 961.413 1111.42 970.9 1112.62 979.462C1113.55 986.076 1115.84 999.845 1124.4 1012.21L1165.51 983.75L1206.62 955.289C1208.38 957.829 1209.49 960.045 1210.16 961.551C1210.84 963.081 1211.23 964.27 1211.43 964.945C1211.81 966.202 1211.79 966.556 1211.65 965.537C1211.52 964.614 1211.35 963.019 1211.22 960.605C1211.09 958.223 1211.01 955.29 1211.01 951.75H1161.01ZM1165.51 983.75L1124.4 1012.21C1132.37 1023.72 1149.02 1040.25 1175.51 1040.25V990.25V940.25C1184.17 940.25 1191.78 942.977 1197.51 946.702C1202.76 950.112 1205.56 953.758 1206.62 955.289L1165.51 983.75ZM1175.51 990.25V1040.25C1200.77 1040.25 1219.39 1026.08 1230.04 1015.92L1195.51 979.75L1160.99 943.582C1159.6 944.903 1159.84 944.367 1161.77 943.355C1163.82 942.28 1168.61 940.25 1175.51 940.25V990.25ZM1195.51 979.75L1154.4 1008.21L1163.4 1021.21L1204.51 992.75L1245.62 964.289L1236.62 951.289L1195.51 979.75ZM1051.01 983.75V1033.75C1068.37 1033.75 1084.73 1029.33 1099.58 1021.61L1076.51 977.25L1053.44 932.889C1052.44 933.41 1051.82 933.602 1051.54 933.674C1051.27 933.741 1051.13 933.75 1051.01 933.75V983.75ZM1076.51 977.25L1100.22 1021.27C1117.79 1011.81 1131.93 997.056 1143.38 981.922L1103.51 951.75L1063.64 921.577C1060.25 926.054 1057.49 929.077 1055.43 931.024C1053.34 932.997 1052.43 933.426 1052.81 933.226L1076.51 977.25ZM1103.51 951.75H1153.51V894.25H1103.51H1053.51V951.75H1103.51ZM1103.51 894.25V844.249H1066.01V894.25V944.25H1103.51V894.25ZM1066.01 894.25V844.249C1043.28 844.249 1015.2 849.426 994.379 871.188L1030.51 905.75L1066.64 940.311C1065.23 941.785 1063.8 942.858 1062.58 943.593C1061.38 944.31 1060.54 944.611 1060.3 944.691C1060.06 944.766 1060.36 944.646 1061.35 944.512C1062.33 944.377 1063.86 944.25 1066.01 944.25V894.25ZM1030.51 905.75L994.379 871.188C974.375 892.102 969.511 919.289 969.511 941.75H1019.51H1069.51C1069.51 939.514 1069.64 937.867 1069.79 936.729C1069.93 935.59 1070.08 935.096 1070.08 935.11C1070.07 935.136 1069.88 935.742 1069.34 936.72C1068.78 937.722 1067.91 938.991 1066.64 940.311L1030.51 905.75ZM1019.51 941.75H969.511C969.511 960.905 973.22 983.108 987.075 1002.16L1027.51 972.75L1067.95 943.341C1069.57 945.575 1069.96 947.14 1069.93 947.006C1069.91 946.93 1069.8 946.484 1069.7 945.589C1069.6 944.694 1069.51 943.43 1069.51 941.75H1019.51ZM1027.51 972.75L987.075 1002.16C1003.23 1024.37 1027.25 1033.75 1051.01 1033.75V983.75V933.75C1051.76 933.75 1054.7 933.897 1058.58 935.715C1062.69 937.639 1065.9 940.518 1067.95 943.341L1027.51 972.75ZM1323.05 991.25H1373.05V945.699L1327.7 941.466L1323.05 991.25ZM1323.05 1005.25V1055.25H1373.05V1005.25H1323.05ZM1178.55 1005.25H1128.55V1055.25H1178.55V1005.25ZM1178.55 991.25L1172.24 941.65L1128.55 947.21V991.25H1178.55ZM1206.05 987.75L1199.85 938.136L1199.8 938.143L1199.74 938.15L1206.05 987.75ZM1215.55 983.75L1260.28 1006.11L1260.93 1004.8L1261.51 1003.45L1215.55 983.75ZM1215.55 773.749L1169.6 793.445L1170.18 794.796L1170.83 796.11L1215.55 773.749ZM1206.05 769.249L1199.74 818.849L1199.8 818.856L1199.85 818.863L1206.05 769.249ZM1178.55 765.749H1128.55V809.789L1172.24 815.349L1178.55 765.749ZM1178.55 751.749V701.75H1128.55V751.749H1178.55ZM1217.05 751.749V801.749H1267.05V751.749H1217.05ZM1227.05 684.25L1181.25 664.209L1181.07 664.612L1180.9 665.019L1227.05 684.25ZM1260.05 645.25L1287.79 686.852L1287.79 686.852L1260.05 645.25ZM1377.05 647.25L1344.2 684.938V684.938L1377.05 647.25ZM1402.05 690.75L1353.1 700.91L1366.91 767.471L1426.34 734.457L1402.05 690.75ZM1411.05 685.749L1435.34 729.457L1437.11 728.474L1438.79 727.352L1411.05 685.749ZM1419.55 680.249V630.249H1405.21L1393.05 637.85L1419.55 680.249ZM1433.05 680.249H1483.05V630.249H1433.05V680.249ZM1433.05 751.749H1383.05V801.749H1433.05V751.749ZM1513.05 751.749H1563.05V701.75H1513.05V751.749ZM1513.05 769.249V819.249H1563.05V769.249H1513.05ZM1433.05 769.249V719.249H1383.05V769.249H1433.05ZM1441.05 980.25L1398.94 1007.2L1399.19 1007.6L1399.45 1007.98L1441.05 980.25ZM1481.55 982.25L1441.55 952.249L1441.06 952.905L1440.59 953.576L1481.55 982.25ZM1491.05 945.75L1503.18 897.242L1445.66 882.862L1441.2 941.987L1491.05 945.75ZM1521.05 953.25L1569.96 963.671L1580.02 916.452L1533.18 904.742L1521.05 953.25ZM1496.05 997.25L1525.33 1037.78L1525.43 1037.71L1525.53 1037.64L1496.05 997.25ZM1408.55 998.75L1379.72 1039.6L1380.13 1039.88L1380.54 1040.16L1408.55 998.75ZM1383.55 967.25L1429.81 948.272V948.272L1383.55 967.25ZM1375.55 769.249H1425.55V719.249H1375.55V769.249ZM1274.55 769.249V719.249H1224.55V769.249H1274.55ZM1276.05 983.75L1230.1 1003.45L1230.68 1004.8L1231.33 1006.11L1276.05 983.75ZM1285.55 987.75L1279.35 1037.36L1280.13 1037.46L1280.91 1037.53L1285.55 987.75ZM1274.55 751.749H1224.55V801.749H1274.55V751.749ZM1375.55 751.749V801.749H1425.55V751.749H1375.55ZM1363.05 664.749L1323.05 694.749L1323.35 695.144L1323.65 695.532L1363.05 664.749ZM1299.55 655.249L1322.68 699.579L1323.03 699.399L1323.37 699.214L1299.55 655.249ZM1281.05 677.749L1235.03 658.222L1234.88 658.575L1234.73 658.931L1281.05 677.749ZM1323.05 991.25H1273.05V1005.25H1323.05H1373.05V991.25H1323.05ZM1323.05 1005.25V955.25H1178.55V1005.25V1055.25H1323.05V1005.25ZM1178.55 1005.25H1228.55V991.25H1178.55H1128.55V1005.25H1178.55ZM1178.55 991.25L1184.87 1040.85L1212.37 1037.35L1206.05 987.75L1199.74 938.15L1172.24 941.65L1178.55 991.25ZM1206.05 987.75L1212.26 1037.36C1217.21 1036.74 1224.36 1035.48 1231.83 1032.33C1238.77 1029.41 1252.22 1022.22 1260.28 1006.11L1215.55 983.75L1170.83 961.389C1177.89 947.277 1189.26 941.754 1193.03 940.168C1195.39 939.173 1197.23 938.681 1198.2 938.454C1199.21 938.216 1199.81 938.141 1199.85 938.136L1206.05 987.75ZM1215.55 983.75L1261.51 1003.45C1265.77 993.511 1266.36 983.113 1266.55 980.523C1266.92 975.367 1267.05 969.459 1267.05 963.25H1217.05H1167.05C1167.05 965.731 1167.03 967.813 1166.98 969.53C1166.93 971.27 1166.87 972.472 1166.81 973.226C1166.79 973.591 1166.77 973.768 1166.77 973.784C1166.76 973.813 1166.79 973.558 1166.87 973.081C1166.94 972.64 1167.11 971.69 1167.43 970.399C1167.6 969.735 1167.84 968.871 1168.17 967.859C1168.49 966.86 1168.95 965.558 1169.6 964.054L1215.55 983.75ZM1217.05 963.25H1267.05V793.75H1217.05H1167.05V963.25H1217.05ZM1217.05 793.75H1267.05C1267.05 787.563 1266.92 781.647 1266.54 776.51C1266.35 773.971 1266.04 770.854 1265.48 767.597C1265.1 765.405 1263.92 758.671 1260.28 751.389L1215.55 773.749L1170.83 796.11C1169.87 794.176 1169.19 792.493 1168.74 791.236C1168.27 789.957 1167.94 788.864 1167.71 788.035C1167.27 786.428 1167.04 785.221 1166.94 784.652C1166.84 784.03 1166.79 783.657 1166.79 783.614C1166.78 783.553 1166.8 783.667 1166.82 783.989C1166.87 784.659 1166.93 785.798 1166.98 787.513C1167.03 789.2 1167.05 791.267 1167.05 793.75H1217.05ZM1215.55 773.749L1261.51 754.054C1254.65 738.042 1242.24 729.668 1233.83 725.688C1225.61 721.791 1217.69 720.315 1212.26 719.636L1206.05 769.249L1199.85 818.863C1199.75 818.851 1196.09 818.458 1191.03 816.061C1185.79 813.581 1175.46 807.123 1169.6 793.445L1215.55 773.749ZM1206.05 769.249L1212.37 719.65L1184.87 716.15L1178.55 765.749L1172.24 815.349L1199.74 818.849L1206.05 769.249ZM1178.55 765.749H1228.55V751.749H1178.55H1128.55V765.749H1178.55ZM1178.55 751.749V801.749H1217.05V751.749V701.75H1178.55V751.749ZM1217.05 751.749H1267.05V734.75H1217.05H1167.05V751.749H1217.05ZM1217.05 734.75H1267.05C1267.05 723.554 1269.13 713.268 1273.21 703.48L1227.05 684.25L1180.9 665.019C1171.65 687.231 1167.05 710.612 1167.05 734.75H1217.05ZM1227.05 684.25L1272.86 704.29C1275.9 697.353 1280.48 691.724 1287.79 686.852L1260.05 645.25L1232.32 603.647C1209.63 618.775 1192.21 639.146 1181.25 664.209L1227.05 684.25ZM1260.05 645.25L1287.79 686.852C1292.16 683.938 1301.22 680.249 1319.05 680.249V630.249V580.249C1288.22 580.249 1257.95 586.561 1232.32 603.647L1260.05 645.25ZM1319.05 630.249V680.249C1338.37 680.249 1343.85 684.637 1344.2 684.938L1377.05 647.25L1409.91 609.561C1384.26 587.195 1351.07 580.249 1319.05 580.249V630.249ZM1377.05 647.25L1344.2 684.938C1348.57 688.752 1351.54 693.402 1353.1 700.91L1402.05 690.75L1451.01 680.589C1445.24 652.764 1431.54 628.414 1409.91 609.561L1377.05 647.25ZM1402.05 690.75L1426.34 734.457C1429.34 732.791 1432.34 731.124 1435.34 729.457L1411.05 685.749L1386.77 642.042C1383.77 643.708 1380.77 645.375 1377.77 647.042L1402.05 690.75ZM1411.05 685.749L1438.79 727.352C1441.44 725.585 1443.86 724.022 1446.05 722.649L1419.55 680.249L1393.05 637.85C1389.92 639.81 1386.67 641.914 1383.32 644.147L1411.05 685.749ZM1419.55 680.249V730.249H1433.05V680.249V630.249H1419.55V680.249ZM1433.05 680.249H1383.05V751.749H1433.05H1483.05V680.249H1433.05ZM1433.05 751.749V801.749H1513.05V751.749V701.75H1433.05V751.749ZM1513.05 751.749H1463.05V769.249H1513.05H1563.05V751.749H1513.05ZM1513.05 769.249V719.249H1433.05V769.249V819.249H1513.05V769.249ZM1433.05 769.249H1383.05V935.75H1433.05H1483.05V769.249H1433.05ZM1433.05 935.75H1383.05C1383.05 957.881 1385.2 985.726 1398.94 1007.2L1441.05 980.25L1483.17 953.297C1483.8 954.286 1484.21 955.084 1484.45 955.603C1484.7 956.122 1484.8 956.428 1484.82 956.46C1484.82 956.48 1484.58 955.751 1484.27 954.028C1483.62 950.454 1483.05 944.564 1483.05 935.75H1433.05ZM1441.05 980.25L1399.45 1007.98C1412.4 1027.41 1433.72 1042.25 1461.55 1042.25V992.25V942.25C1465.78 942.25 1470.79 943.375 1475.44 946.099C1479.82 948.665 1482 951.534 1482.66 952.515L1441.05 980.25ZM1461.55 992.25V1042.25C1485.29 1042.25 1507.8 1031.95 1522.52 1010.92L1481.55 982.25L1440.59 953.576C1442.58 950.737 1445.92 947.415 1450.69 945.028C1455.35 942.7 1459.39 942.25 1461.55 942.25V992.25ZM1481.55 982.25L1521.55 1012.25C1535.85 993.188 1539.51 968.141 1540.91 949.512L1491.05 945.75L1441.2 941.987C1440.67 948.944 1439.89 953.246 1439.29 955.53C1439.01 956.61 1438.89 956.792 1439.09 956.326C1439.28 955.885 1439.99 954.333 1441.55 952.249L1481.55 982.25ZM1491.05 945.75L1478.93 994.257L1508.93 1001.76L1521.05 953.25L1533.18 904.742L1503.18 897.242L1491.05 945.75ZM1521.05 953.25L1472.15 942.828C1470.82 949.102 1469.21 952.814 1468.08 954.799C1467.53 955.761 1467.11 956.296 1466.89 956.549C1466.78 956.679 1466.7 956.757 1466.66 956.796C1466.61 956.835 1466.59 956.853 1466.58 956.86L1496.05 997.25L1525.53 1037.64C1550.92 1019.11 1563.99 991.652 1569.96 963.671L1521.05 953.25ZM1496.05 997.25L1466.78 956.716C1464.69 958.225 1460.73 960.25 1452.05 960.25V1010.25V1060.25C1478.04 1060.25 1503.42 1053.61 1525.33 1037.78L1496.05 997.25ZM1452.05 1010.25V960.25C1441.49 960.25 1437.53 957.983 1436.57 957.335L1408.55 998.75L1380.54 1040.16C1402.25 1054.85 1427.29 1060.25 1452.05 1060.25V1010.25ZM1408.55 998.75L1437.39 957.901C1433.93 955.46 1431.59 952.593 1429.81 948.272L1383.55 967.25L1337.3 986.227C1346.19 1007.91 1360.51 1026.04 1379.72 1039.6L1408.55 998.75ZM1383.55 967.25L1429.81 948.272C1427.06 941.556 1425.55 934.197 1425.55 925.75H1375.55H1325.55C1325.55 946.635 1329.38 966.943 1337.3 986.227L1383.55 967.25ZM1375.55 925.75H1425.55V769.249H1375.55H1325.55V925.75H1375.55ZM1375.55 769.249V719.249H1274.55V769.249V819.249H1375.55V769.249ZM1274.55 769.249H1224.55V963.25H1274.55H1324.55V769.249H1274.55ZM1274.55 963.25H1224.55C1224.55 969.459 1224.69 975.367 1225.06 980.523C1225.25 983.113 1225.84 993.511 1230.1 1003.45L1276.05 983.75L1322.01 964.053C1322.66 965.558 1323.12 966.86 1323.44 967.859C1323.77 968.871 1324.01 969.734 1324.18 970.399C1324.5 971.69 1324.67 972.64 1324.74 973.081C1324.82 973.558 1324.85 973.813 1324.84 973.784C1324.84 973.768 1324.82 973.591 1324.8 973.226C1324.74 972.472 1324.68 971.27 1324.63 969.53C1324.58 967.813 1324.55 965.731 1324.55 963.25H1274.55ZM1276.05 983.75L1231.33 1006.11C1239.39 1022.22 1252.84 1029.41 1259.78 1032.33C1267.25 1035.48 1274.39 1036.74 1279.35 1037.36L1285.55 987.75L1291.76 938.136C1291.8 938.141 1292.4 938.216 1293.41 938.454C1294.38 938.681 1296.22 939.173 1298.58 940.168C1302.35 941.754 1313.72 947.277 1320.78 961.389L1276.05 983.75ZM1285.55 987.75L1280.91 1037.53L1318.41 1041.03L1323.05 991.25L1327.7 941.466L1290.2 937.966L1285.55 987.75ZM1274.55 724.749H1224.55V751.749H1274.55H1324.55V724.749H1274.55ZM1274.55 751.749V801.749H1375.55V751.749V701.75H1274.55V751.749ZM1375.55 751.749H1425.55V724.749H1375.55H1325.55V751.749H1375.55ZM1375.55 724.749H1425.55C1425.55 708.003 1424.39 692.007 1421.38 677.552C1418.46 663.536 1413.13 647.629 1402.46 633.967L1363.05 664.749L1323.65 695.532C1321.31 692.536 1322.23 691.963 1323.48 697.947C1324.64 703.491 1325.55 712.163 1325.55 724.749H1375.55ZM1363.05 664.749L1403.05 634.75C1383.47 608.634 1354.67 598.749 1326.55 598.749V648.749V698.749C1329.36 698.749 1329.38 699.21 1327.86 698.543C1327.09 698.206 1326.15 697.675 1325.2 696.919C1324.24 696.163 1323.53 695.385 1323.05 694.749L1363.05 664.749ZM1326.55 648.749V598.749C1309.08 598.749 1291.76 602.608 1275.74 611.285L1299.55 655.249L1323.37 699.214C1323.48 699.152 1323.65 699.071 1324.01 698.986C1324.38 698.896 1325.18 698.749 1326.55 698.749V648.749ZM1299.55 655.249L1276.43 610.92C1255.17 622.012 1242.5 640.592 1235.03 658.222L1281.05 677.749L1327.08 697.277C1327.96 695.213 1328.37 694.943 1327.8 695.63C1327.14 696.432 1325.5 698.111 1322.68 699.579L1299.55 655.249ZM1281.05 677.749L1234.73 658.931C1226.75 678.57 1224.55 701.936 1224.55 724.749H1274.55H1324.55C1324.55 706.23 1326.69 698.262 1327.38 696.568L1281.05 677.749ZM512.656 1029.25H462.656V1073.29L506.343 1078.85L512.656 1029.25ZM512.656 1015.25V965.25H462.656V1015.25H512.656ZM714.156 1026.25L735.353 980.965H735.353L714.156 1026.25ZM747.656 1055.25L703.948 1079.53L704.203 1079.99L704.467 1080.44L747.656 1055.25ZM741.656 1153.75L703.904 1120.97L703.871 1121L703.838 1121.04L741.656 1153.75ZM694.656 1180.25L682.162 1131.84L686.226 1229.53L694.656 1180.25ZM752.656 1207.25L716.867 1242.17L717.082 1242.39L717.301 1242.6L752.656 1207.25ZM762.656 1314.25L806.14 1338.93L806.281 1338.68L806.418 1338.43L762.656 1314.25ZM727.656 1344.25L748.489 1389.7L748.695 1389.61L748.901 1389.51L727.656 1344.25ZM512.656 1355.25H462.656V1405.25H512.656V1355.25ZM512.656 1341.25L506.343 1291.65L462.656 1297.21V1341.25H512.656ZM540.156 1337.75L533.954 1288.14L533.899 1288.14L533.843 1288.15L540.156 1337.75ZM549.656 1333.75L594.377 1356.11L595.034 1354.8L595.613 1353.45L549.656 1333.75ZM549.656 1037.25L503.699 1056.95L504.278 1058.3L504.935 1059.61L549.656 1037.25ZM540.156 1032.75L533.843 1082.35L533.899 1082.36L533.954 1082.36L540.156 1032.75ZM611.156 1032.75V982.749H561.156V1032.75H611.156ZM611.156 1172.75H561.156V1222.75H611.156V1172.75ZM683.156 1158.25L722.991 1188.47L723.236 1188.15L723.476 1187.82L683.156 1158.25ZM683.156 1047.75L642.836 1077.32L642.836 1077.32L683.156 1047.75ZM611.156 1190.25V1140.25H561.156V1190.25H611.156ZM611.156 1337.75H561.156V1387.75H611.156V1337.75ZM697.156 1322.75L657.62 1292.14L657.548 1292.23L657.476 1292.33L697.156 1322.75ZM512.656 1029.25H562.656V1015.25H512.656H462.656V1029.25H512.656ZM512.656 1015.25V1065.25H650.656V1015.25V965.25H512.656V1015.25ZM650.656 1015.25V1065.25C673.575 1065.25 686.544 1068.53 692.959 1071.53L714.156 1026.25L735.353 980.965C710.434 969.301 681.07 965.25 650.656 965.25V1015.25ZM714.156 1026.25L692.959 1071.53C701.597 1075.58 703.583 1078.87 703.948 1079.53L747.656 1055.25L791.364 1030.97C778.396 1007.62 758.048 991.588 735.353 980.965L714.156 1026.25ZM747.656 1055.25L704.467 1080.44C706.755 1084.37 708.156 1088.92 708.156 1095.25H758.156H808.156C808.156 1072.24 802.557 1050.13 790.845 1030.06L747.656 1055.25ZM758.156 1095.25H708.156V1108.75H758.156H808.156V1095.25H758.156ZM758.156 1108.75H708.156C708.156 1114.47 706.723 1117.72 703.904 1120.97L741.656 1153.75L779.408 1186.53C798.589 1164.45 808.156 1137.69 808.156 1108.75H758.156ZM741.656 1153.75L703.838 1121.04C701.599 1123.63 695.998 1128.27 682.162 1131.84L694.656 1180.25L707.15 1228.66C734.647 1221.57 760.38 1208.54 779.474 1186.46L741.656 1153.75ZM694.656 1180.25L686.226 1229.53C704.703 1232.69 713.078 1238.28 716.867 1242.17L752.656 1207.25L788.445 1172.33C765.567 1148.88 735.276 1136.47 703.086 1130.97L694.656 1180.25ZM752.656 1207.25L717.301 1242.6C720.895 1246.2 723.156 1250.33 723.156 1258.75H773.156H823.156C823.156 1225.84 811.751 1195.63 788.011 1171.89L752.656 1207.25ZM773.156 1258.75H723.156V1272.75H773.156H823.156V1258.75H773.156ZM773.156 1272.75H723.156C723.156 1279.61 721.65 1285.08 718.894 1290.07L762.656 1314.25L806.418 1338.43C817.662 1318.09 823.156 1295.89 823.156 1272.75H773.156ZM762.656 1314.25L719.172 1289.57C718.513 1290.73 715.936 1294.52 706.411 1298.99L727.656 1344.25L748.901 1389.51C772.042 1378.65 792.799 1362.44 806.14 1338.93L762.656 1314.25ZM727.656 1344.25L706.823 1298.8C699.91 1301.96 686.431 1305.25 663.156 1305.25V1355.25V1405.25C693.881 1405.25 723.402 1401.2 748.489 1389.7L727.656 1344.25ZM663.156 1355.25V1305.25H512.656V1355.25V1405.25H663.156V1355.25ZM512.656 1355.25H562.656V1341.25H512.656H462.656V1355.25H512.656ZM512.656 1341.25L518.969 1390.85L546.469 1387.35L540.156 1337.75L533.843 1288.15L506.343 1291.65L512.656 1341.25ZM540.156 1337.75L546.358 1387.36C551.317 1386.74 558.458 1385.48 565.934 1382.33C572.867 1379.41 586.322 1372.22 594.377 1356.11L549.656 1333.75L504.935 1311.39C511.99 1297.28 523.362 1291.75 527.128 1290.17C529.49 1289.17 531.333 1288.68 532.298 1288.45C533.308 1288.22 533.907 1288.14 533.954 1288.14L540.156 1337.75ZM549.656 1333.75L595.613 1353.45C599.871 1343.51 600.458 1333.11 600.648 1330.52C601.025 1325.37 601.156 1319.46 601.156 1313.25H551.156H501.156C501.156 1315.73 501.128 1317.81 501.081 1319.53C501.033 1321.27 500.97 1322.47 500.914 1323.23C500.888 1323.59 500.869 1323.77 500.867 1323.78C500.864 1323.81 500.891 1323.56 500.969 1323.08C501.041 1322.64 501.208 1321.69 501.535 1320.4C501.703 1319.73 501.941 1318.87 502.268 1317.86C502.592 1316.86 503.054 1315.56 503.699 1314.05L549.656 1333.75ZM551.156 1313.25H601.156V1057.25H551.156H501.156V1313.25H551.156ZM551.156 1057.25H601.156C601.156 1051.06 601.026 1045.15 600.641 1040.01C600.451 1037.47 600.143 1034.35 599.58 1031.1C599.2 1028.9 598.018 1022.17 594.377 1014.89L549.656 1037.25L504.935 1059.61C503.968 1057.68 503.293 1055.99 502.837 1054.74C502.373 1053.46 502.043 1052.36 501.814 1051.54C501.37 1049.93 501.143 1048.72 501.045 1048.15C500.937 1047.53 500.895 1047.16 500.89 1047.11C500.883 1047.05 500.897 1047.17 500.921 1047.49C500.971 1048.16 501.034 1049.3 501.082 1051.01C501.128 1052.7 501.156 1054.77 501.156 1057.25H551.156ZM549.656 1037.25L595.613 1017.55C588.751 1001.54 576.339 993.168 567.935 989.188C559.708 985.291 551.794 983.815 546.358 983.136L540.156 1032.75L533.954 1082.36C533.851 1082.35 530.187 1081.96 525.127 1079.56C519.889 1077.08 509.561 1070.62 503.699 1056.95L549.656 1037.25ZM540.156 1032.75L546.469 983.15L518.969 979.65L512.656 1029.25L506.343 1078.85L533.843 1082.35L540.156 1032.75ZM650.656 1032.75V982.749H611.156V1032.75V1082.75H650.656V1032.75ZM611.156 1032.75H561.156V1172.75H611.156H661.156V1032.75H611.156ZM611.156 1172.75V1222.75H650.656V1172.75V1122.75H611.156V1172.75ZM650.656 1172.75V1222.75C677.434 1222.75 704.426 1212.94 722.991 1188.47L683.156 1158.25L643.321 1128.03C643.881 1127.29 644.703 1126.4 645.809 1125.51C646.919 1124.63 648.077 1123.95 649.159 1123.46C651.344 1122.49 652.236 1122.75 650.656 1122.75V1172.75ZM683.156 1158.25L723.476 1187.82C740.208 1165 744.156 1136.36 744.156 1111.25H694.156H644.156C644.156 1119.24 643.451 1124.49 642.722 1127.61C641.987 1130.74 641.524 1130.47 642.836 1128.68L683.156 1158.25ZM694.156 1111.25H744.156V1095.25H694.156H644.156V1111.25H694.156ZM694.156 1095.25H744.156C744.156 1070.01 740.278 1041.09 723.476 1018.18L683.156 1047.75L642.836 1077.32C641.459 1075.44 641.938 1075.14 642.695 1078.4C643.442 1081.63 644.156 1087.04 644.156 1095.25H694.156ZM683.156 1047.75L723.476 1018.18C705.165 993.211 678.082 982.749 650.656 982.749V1032.75V1082.75C652.021 1082.75 650.918 1082.98 648.578 1081.9C647.431 1081.37 646.255 1080.64 645.165 1079.74C644.083 1078.85 643.319 1077.98 642.836 1077.32L683.156 1047.75ZM663.156 1190.25V1140.25H611.156V1190.25V1240.25H663.156V1190.25ZM611.156 1190.25H561.156V1337.75H611.156H661.156V1190.25H611.156ZM611.156 1337.75V1387.75H663.156V1337.75V1287.75H611.156V1337.75ZM663.156 1337.75V1387.75C690.384 1387.75 717.853 1377.93 736.836 1353.17L697.156 1322.75L657.476 1292.33C657.978 1291.67 658.726 1290.87 659.736 1290.07C660.75 1289.27 661.788 1288.67 662.724 1288.25C664.609 1287.42 665.141 1287.75 663.156 1287.75V1337.75ZM697.156 1322.75L736.692 1353.36C754.962 1329.76 759.156 1299.32 759.156 1272.75H709.156H659.156C659.156 1281.56 658.369 1287.36 657.537 1290.83C656.697 1294.33 656.158 1294.03 657.62 1292.14L697.156 1322.75ZM709.156 1272.75H759.156V1256.25H709.156H659.156V1272.75H709.156ZM709.156 1256.25H759.156C759.156 1229.98 754.857 1201.38 738.676 1178.16C720.207 1151.66 692.125 1140.25 663.156 1140.25V1190.25V1240.25C664.85 1240.25 663.922 1240.54 661.708 1239.48C659.247 1238.3 657.482 1236.55 656.636 1235.34C656.014 1234.45 656.736 1235.07 657.578 1238.69C658.421 1242.32 659.156 1247.99 659.156 1256.25H709.156ZM1025.76 1342.75L1059.96 1379.23L1091.41 1349.74L1066.87 1314.29L1025.76 1342.75ZM1006.26 1355.25L986.325 1309.4L985.947 1309.56L985.571 1309.73L1006.26 1355.25ZM944.761 1351.25L917.026 1392.85L917.373 1393.08L917.724 1393.31L944.761 1351.25ZM926.761 1325.75L975 1312.59L951.151 1225.15L889.904 1291.96L926.761 1325.75ZM890.261 1352.25L909.239 1398.51L909.53 1398.39L909.819 1398.27L890.261 1352.25ZM798.761 1341.25L761.073 1374.11L761.285 1374.35L761.499 1374.59L798.761 1341.25ZM803.261 1245.25L835.358 1283.59L835.617 1283.37L835.874 1283.15L803.261 1245.25ZM924.761 1226.75V1276.75H974.761V1226.75H924.761ZM913.761 1129.75L872.366 1157.79L872.889 1158.56L873.441 1159.32L913.761 1129.75ZM861.261 1120.75L886.068 1164.16L886.832 1163.73L887.579 1163.26L861.261 1120.75ZM846.261 1143.75L797.926 1130.95L797.792 1131.46L797.669 1131.97L846.261 1143.75ZM847.761 1191.75L840.564 1241.23L908.892 1251.17L897.016 1183.15L847.761 1191.75ZM792.761 1183.75L743.501 1192.32L749.709 1228.01L785.564 1233.23L792.761 1183.75ZM797.761 1141.25L752.598 1119.8L752.479 1120.05L752.363 1120.3L797.761 1141.25ZM829.261 1109.25L853.204 1153.14L853.585 1152.94L853.962 1152.72L829.261 1109.25ZM944.761 1109.25L919.187 1152.21L944.761 1109.25ZM973.761 1142.25L927.183 1160.43L927.373 1160.92L927.574 1161.4L973.761 1142.25ZM1016.76 1329.75L1057.87 1301.29L1024.56 1253.18L982.238 1293.58L1016.76 1329.75ZM897.761 1327.25L920.829 1371.61L921.149 1371.44L921.466 1371.27L897.761 1327.25ZM924.761 1301.75L964.632 1331.92L974.761 1318.54V1301.75H924.761ZM924.761 1244.25H974.761V1194.25H924.761V1244.25ZM851.761 1255.75L815.629 1221.19V1221.19L851.761 1255.75ZM848.761 1322.75L889.198 1293.34H889.198L848.761 1322.75ZM1025.76 1342.75L991.564 1306.27C990.966 1306.83 989.48 1308.02 986.325 1309.4L1006.26 1355.25L1026.2 1401.1C1038.38 1395.81 1049.89 1388.66 1059.96 1379.23L1025.76 1342.75ZM1006.26 1355.25L985.571 1309.73C986.48 1309.32 984.994 1310.25 979.261 1310.25V1360.25V1410.25C994.862 1410.25 1011.38 1407.85 1026.95 1400.77L1006.26 1355.25ZM979.261 1360.25V1310.25C972.955 1310.25 971.379 1308.92 971.799 1309.19L944.761 1351.25L917.724 1393.31C936.811 1405.58 958.235 1410.25 979.261 1410.25V1360.25ZM944.761 1351.25L972.496 1309.65C972.91 1309.92 973.672 1310.57 974.36 1311.54C975.024 1312.48 975.115 1313.01 975 1312.59L926.761 1325.75L878.523 1338.91C884.512 1360.87 897.406 1379.77 917.026 1392.85L944.761 1351.25ZM926.761 1325.75L889.904 1291.96C883.132 1299.35 876.694 1303.69 870.704 1306.23L890.261 1352.25L909.819 1398.27C930.495 1389.48 948.391 1376.15 963.619 1359.54L926.761 1325.75ZM890.261 1352.25L871.284 1305.99C864.132 1308.92 857.234 1310.25 850.261 1310.25V1360.25V1410.25C870.622 1410.25 890.39 1406.24 909.239 1398.51L890.261 1352.25ZM850.261 1360.25V1310.25C843.212 1310.25 839.267 1309.26 837.443 1308.59C836.574 1308.27 836.182 1308.02 836.09 1307.96C836.036 1307.92 836.02 1307.91 836.027 1307.91C836.034 1307.92 836.035 1307.92 836.024 1307.91L798.761 1341.25L761.499 1374.59C785.334 1401.23 818.293 1410.25 850.261 1410.25V1360.25ZM798.761 1341.25L836.45 1308.39C834.026 1305.61 831.761 1301.57 831.761 1292.75H781.761H731.761C731.761 1322.6 740.83 1350.89 761.073 1374.11L798.761 1341.25ZM781.761 1292.75H831.761C831.761 1289.09 832.399 1287.38 832.688 1286.74C832.944 1286.18 833.507 1285.14 835.358 1283.59L803.261 1245.25L771.165 1206.91C744.824 1228.96 731.761 1259.17 731.761 1292.75H781.761ZM803.261 1245.25L835.874 1283.15C835.223 1283.71 837.095 1281.84 844.837 1279.96C852.452 1278.1 863.646 1276.75 879.261 1276.75V1226.75V1176.75C840.523 1176.75 799.335 1182.67 770.649 1207.35L803.261 1245.25ZM879.261 1226.75V1276.75H924.761V1226.75V1176.75H879.261V1226.75ZM924.761 1226.75H974.761V1186.25H924.761H874.761V1226.75H924.761ZM924.761 1186.25H974.761C974.761 1170.48 973.739 1155.43 971.09 1141.82C968.543 1128.73 963.84 1113.49 954.082 1100.18L913.761 1129.75L873.441 1159.32C871.017 1156.01 871.814 1155.18 872.933 1160.93C873.95 1166.15 874.761 1174.35 874.761 1186.25H924.761ZM913.761 1129.75L955.157 1101.71C938.69 1077.4 913.218 1064.25 884.261 1064.25V1114.25V1164.25C883.639 1164.25 881.087 1164.07 877.88 1162.39C874.644 1160.69 872.905 1158.59 872.366 1157.79L913.761 1129.75ZM884.261 1114.25V1064.25C866.75 1064.25 849.951 1068.95 834.944 1078.24L861.261 1120.75L887.579 1163.26C887.254 1163.46 886.654 1163.77 885.859 1163.99C885.069 1164.21 884.48 1164.25 884.261 1164.25V1114.25ZM861.261 1120.75L836.455 1077.34C813.43 1090.49 802.792 1112.57 797.926 1130.95L846.261 1143.75L894.597 1156.54C895.096 1154.66 895.24 1155.13 894.142 1156.81C892.9 1158.72 890.338 1161.72 886.068 1164.16L861.261 1120.75ZM846.261 1143.75L797.669 1131.97C792.519 1153.21 794.519 1177.51 798.507 1200.35L847.761 1191.75L897.016 1183.15C895.465 1174.26 894.769 1167.45 894.612 1162.44C894.449 1157.23 894.915 1155.28 894.854 1155.53L846.261 1143.75ZM847.761 1191.75L854.958 1142.27L799.958 1134.27L792.761 1183.75L785.564 1233.23L840.564 1241.23L847.761 1191.75ZM792.761 1183.75L842.022 1175.18C840.936 1168.94 841.787 1165.18 843.159 1162.2L797.761 1141.25L752.363 1120.3C741.736 1143.32 739.253 1167.89 743.501 1192.32L792.761 1183.75ZM797.761 1141.25L842.925 1162.7C844.146 1160.13 846.529 1156.79 853.204 1153.14L829.261 1109.25L805.319 1065.35C782.661 1077.71 764.044 1095.7 752.598 1119.8L797.761 1141.25ZM829.261 1109.25L853.962 1152.72C858.948 1149.89 868.389 1146.75 885.261 1146.75V1096.75V1046.75C856.801 1046.75 828.908 1051.94 804.561 1065.78L829.261 1109.25ZM885.261 1096.75V1146.75C906.64 1146.75 916.161 1150.41 919.187 1152.21L944.761 1109.25L970.336 1066.28C945.362 1051.42 915.216 1046.75 885.261 1046.75V1096.75ZM944.761 1109.25L919.187 1152.21C924.74 1155.52 926.345 1158.28 927.183 1160.43L973.761 1142.25L1020.34 1124.07C1010.51 1098.88 992.783 1079.65 970.336 1066.28L944.761 1109.25ZM973.761 1142.25L927.574 1161.4C930.578 1168.64 932.261 1176.76 932.261 1186.25H982.261H1032.26C1032.26 1164.4 1028.28 1143.19 1019.95 1123.1L973.761 1142.25ZM982.261 1186.25H932.261V1301.75H982.261H1032.26V1186.25H982.261ZM982.261 1301.75H932.261C932.261 1311.41 932.67 1320.9 933.874 1329.46C934.804 1336.08 937.092 1349.85 945.652 1362.21L986.761 1333.75L1027.87 1305.29C1029.63 1307.83 1030.74 1310.05 1031.41 1311.55C1032.09 1313.08 1032.48 1314.27 1032.68 1314.94C1033.06 1316.2 1033.04 1316.56 1032.9 1315.54C1032.77 1314.61 1032.6 1313.02 1032.47 1310.61C1032.34 1308.22 1032.26 1305.29 1032.26 1301.75H982.261ZM986.761 1333.75L945.652 1362.21C953.622 1373.72 970.273 1390.25 996.761 1390.25V1340.25V1290.25C1005.42 1290.25 1013.03 1292.98 1018.76 1296.7C1024.01 1300.11 1026.81 1303.76 1027.87 1305.29L986.761 1333.75ZM996.761 1340.25V1390.25C1022.02 1390.25 1040.64 1376.08 1051.29 1365.92L1016.76 1329.75L982.238 1293.58C980.854 1294.9 981.091 1294.37 983.02 1293.35C985.066 1292.28 989.86 1290.25 996.761 1290.25V1340.25ZM1016.76 1329.75L975.652 1358.21L984.652 1371.21L1025.76 1342.75L1066.87 1314.29L1057.87 1301.29L1016.76 1329.75ZM872.261 1333.75V1383.75C889.62 1383.75 905.981 1379.33 920.829 1371.61L897.761 1327.25L874.694 1282.89C873.692 1283.41 873.066 1283.6 872.786 1283.67C872.523 1283.74 872.379 1283.75 872.261 1283.75V1333.75ZM897.761 1327.25L921.466 1371.27C939.036 1361.81 953.179 1347.06 964.632 1331.92L924.761 1301.75L884.891 1271.58C881.503 1276.05 878.742 1279.08 876.68 1281.02C874.591 1283 873.684 1283.43 874.056 1283.23L897.761 1327.25ZM924.761 1301.75H974.761V1244.25H924.761H874.761V1301.75H924.761ZM924.761 1244.25V1194.25H887.261V1244.25V1294.25H924.761V1244.25ZM887.261 1244.25V1194.25C864.531 1194.25 836.446 1199.43 815.629 1221.19L851.761 1255.75L887.894 1290.31C886.484 1291.78 885.054 1292.86 883.83 1293.59C882.635 1294.31 881.793 1294.61 881.545 1294.69C881.314 1294.77 881.612 1294.65 882.598 1294.51C883.584 1294.38 885.108 1294.25 887.261 1294.25V1244.25ZM851.761 1255.75L815.629 1221.19C795.625 1242.1 790.761 1269.29 790.761 1291.75H840.761H890.761C890.761 1289.51 890.888 1287.87 891.035 1286.73C891.183 1285.59 891.333 1285.1 891.329 1285.11C891.321 1285.14 891.133 1285.74 890.587 1286.72C890.026 1287.72 889.156 1288.99 887.894 1290.31L851.761 1255.75ZM840.761 1291.75H790.761C790.761 1310.91 794.47 1333.11 808.325 1352.16L848.761 1322.75L889.198 1293.34C890.823 1295.58 891.21 1297.14 891.175 1297.01C891.156 1296.93 891.048 1296.48 890.947 1295.59C890.846 1294.69 890.761 1293.43 890.761 1291.75H840.761ZM848.761 1322.75L808.325 1352.16C824.48 1374.37 848.496 1383.75 872.261 1383.75V1333.75V1283.75C873.013 1283.75 875.949 1283.9 879.833 1285.71C883.943 1287.64 887.145 1290.52 889.198 1293.34L848.761 1322.75ZM1294.3 1341.25H1344.3V1297.21L1300.62 1291.65L1294.3 1341.25ZM1294.3 1355.25V1405.25H1344.3V1355.25H1294.3ZM1159.8 1355.25H1109.8V1405.25H1159.8V1355.25ZM1159.8 1341.25L1153.49 1291.65L1109.8 1297.21V1341.25H1159.8ZM1187.3 1337.75L1181.1 1288.14L1181.05 1288.14L1180.99 1288.15L1187.3 1337.75ZM1196.8 1333.75L1241.53 1356.11L1242.18 1354.8L1242.76 1353.45L1196.8 1333.75ZM1187.8 1137.25L1145.4 1163.75L1145.89 1164.53L1146.41 1165.29L1187.8 1137.25ZM1137.8 1125.75L1154.89 1172.74L1155.46 1172.53L1156.02 1172.31L1137.8 1125.75ZM1115.3 1140.75L1080.74 1104.62L1080.34 1105L1079.95 1105.39L1115.3 1140.75ZM1095.8 1173.25L1049.31 1154.87L1045.8 1163.72V1173.25H1095.8ZM1097.3 1333.75L1051.35 1353.45L1051.93 1354.8L1052.58 1356.11L1097.3 1333.75ZM1106.8 1337.75L1113.12 1288.15L1113.06 1288.14L1113.01 1288.14L1106.8 1337.75ZM1134.3 1341.25H1184.3V1297.21L1140.62 1291.65L1134.3 1341.25ZM1134.3 1355.25V1405.25H1184.3V1355.25H1134.3ZM999.804 1355.25H949.804V1405.25H999.804V1355.25ZM999.804 1341.25L993.492 1291.65L949.804 1297.21V1341.25H999.804ZM1027.3 1337.75L1021.1 1288.14L1021.05 1288.14L1020.99 1288.15L1027.3 1337.75ZM1036.8 1333.75L1081.53 1356.11L1082.18 1354.8L1082.76 1353.45L1036.8 1333.75ZM1036.8 1123.75L990.847 1143.45L991.426 1144.8L992.083 1146.11L1036.8 1123.75ZM1027.3 1119.25L1020.99 1168.85L1021.05 1168.86L1021.1 1168.86L1027.3 1119.25ZM999.804 1115.75H949.804V1159.79L993.492 1165.35L999.804 1115.75ZM999.804 1101.75V1051.75H949.804V1101.75H999.804ZM1092.8 1101.75H1142.8V1051.75H1092.8V1101.75ZM1092.8 1145.75H1042.8V1334.83L1136.27 1170.46L1092.8 1145.75ZM1129.8 1108.75L1152.56 1153.27L1152.75 1153.18L1152.93 1153.08L1129.8 1108.75ZM1234.3 1120.25L1197.41 1154V1154L1234.3 1120.25ZM1257.3 1333.75L1211.35 1353.45L1211.93 1354.8L1212.58 1356.11L1257.3 1333.75ZM1266.8 1337.75L1273.12 1288.15L1273.06 1288.14L1273.01 1288.14L1266.8 1337.75ZM1294.3 1341.25H1244.3V1355.25H1294.3H1344.3V1341.25H1294.3ZM1294.3 1355.25V1305.25H1159.8V1355.25V1405.25H1294.3V1355.25ZM1159.8 1355.25H1209.8V1341.25H1159.8H1109.8V1355.25H1159.8ZM1159.8 1341.25L1166.12 1390.85L1193.62 1387.35L1187.3 1337.75L1180.99 1288.15L1153.49 1291.65L1159.8 1341.25ZM1187.3 1337.75L1193.51 1387.36C1198.46 1386.74 1205.61 1385.48 1213.08 1382.33C1220.02 1379.41 1233.47 1372.22 1241.53 1356.11L1196.8 1333.75L1152.08 1311.39C1159.14 1297.28 1170.51 1291.75 1174.28 1290.17C1176.64 1289.17 1178.48 1288.68 1179.45 1288.45C1180.46 1288.22 1181.06 1288.14 1181.1 1288.14L1187.3 1337.75ZM1196.8 1333.75L1242.76 1353.45C1247.02 1343.51 1247.61 1333.11 1247.8 1330.52C1248.17 1325.37 1248.3 1319.46 1248.3 1313.25H1198.3H1148.3C1148.3 1315.73 1148.28 1317.81 1148.23 1319.53C1148.18 1321.27 1148.12 1322.47 1148.06 1323.23C1148.04 1323.59 1148.02 1323.77 1148.02 1323.78C1148.01 1323.81 1148.04 1323.56 1148.12 1323.08C1148.19 1322.64 1148.36 1321.69 1148.68 1320.4C1148.85 1319.73 1149.09 1318.87 1149.42 1317.86C1149.74 1316.86 1150.2 1315.56 1150.85 1314.05L1196.8 1333.75ZM1198.3 1313.25H1248.3V1187.25H1198.3H1148.3V1313.25H1198.3ZM1198.3 1187.25H1248.3C1248.3 1161.5 1244.83 1132.27 1229.2 1109.21L1187.8 1137.25L1146.41 1165.29C1145.2 1163.51 1145.88 1163.63 1146.75 1167.78C1147.59 1171.79 1148.3 1178.09 1148.3 1187.25H1198.3ZM1187.8 1137.25L1230.2 1110.75C1213.76 1084.44 1187.13 1071.25 1157.8 1071.25V1121.25V1171.25C1157.71 1171.25 1155.2 1171.19 1151.78 1169.37C1148.23 1167.47 1146.19 1165 1145.4 1163.75L1187.8 1137.25ZM1157.8 1121.25V1071.25C1143.76 1071.25 1130.65 1074.86 1119.58 1079.19L1137.8 1125.75L1156.02 1172.31C1157.96 1171.55 1159.1 1171.25 1159.53 1171.15C1159.97 1171.06 1159.33 1171.25 1157.8 1171.25V1121.25ZM1137.8 1125.75L1120.72 1078.76C1104.98 1084.48 1091.72 1094.12 1080.74 1104.62L1115.3 1140.75L1149.87 1176.88C1151.95 1174.89 1153.48 1173.73 1154.41 1173.1C1155.34 1172.48 1155.5 1172.52 1154.89 1172.74L1137.8 1125.75ZM1115.3 1140.75L1079.95 1105.39C1066.02 1119.32 1056.37 1136.99 1049.31 1154.87L1095.8 1173.25L1142.3 1191.63C1146.57 1180.84 1149.92 1176.84 1150.66 1176.1L1115.3 1140.75ZM1095.8 1173.25H1045.8V1313.25H1095.8H1145.8V1173.25H1095.8ZM1095.8 1313.25H1045.8C1045.8 1319.46 1045.94 1325.37 1046.31 1330.52C1046.5 1333.11 1047.09 1343.51 1051.35 1353.45L1097.3 1333.75L1143.26 1314.05C1143.91 1315.56 1144.37 1316.86 1144.69 1317.86C1145.02 1318.87 1145.26 1319.73 1145.43 1320.4C1145.75 1321.69 1145.92 1322.64 1145.99 1323.08C1146.07 1323.56 1146.1 1323.81 1146.09 1323.78C1146.09 1323.77 1146.07 1323.59 1146.05 1323.23C1145.99 1322.47 1145.93 1321.27 1145.88 1319.53C1145.83 1317.81 1145.8 1315.73 1145.8 1313.25H1095.8ZM1097.3 1333.75L1052.58 1356.11C1060.64 1372.22 1074.09 1379.41 1081.03 1382.33C1088.5 1385.48 1095.64 1386.74 1100.6 1387.36L1106.8 1337.75L1113.01 1288.14C1113.05 1288.14 1113.65 1288.22 1114.66 1288.45C1115.63 1288.68 1117.47 1289.17 1119.83 1290.17C1123.6 1291.75 1134.97 1297.28 1142.03 1311.39L1097.3 1333.75ZM1106.8 1337.75L1100.49 1387.35L1127.99 1390.85L1134.3 1341.25L1140.62 1291.65L1113.12 1288.15L1106.8 1337.75ZM1134.3 1341.25H1084.3V1355.25H1134.3H1184.3V1341.25H1134.3ZM1134.3 1355.25V1305.25H999.804V1355.25V1405.25H1134.3V1355.25ZM999.804 1355.25H1049.8V1341.25H999.804H949.804V1355.25H999.804ZM999.804 1341.25L1006.12 1390.85L1033.62 1387.35L1027.3 1337.75L1020.99 1288.15L993.492 1291.65L999.804 1341.25ZM1027.3 1337.75L1033.51 1387.36C1038.46 1386.74 1045.61 1385.48 1053.08 1382.33C1060.02 1379.41 1073.47 1372.22 1081.53 1356.11L1036.8 1333.75L992.083 1311.39C999.139 1297.28 1010.51 1291.75 1014.28 1290.17C1016.64 1289.17 1018.48 1288.68 1019.45 1288.45C1020.46 1288.22 1021.06 1288.14 1021.1 1288.14L1027.3 1337.75ZM1036.8 1333.75L1082.76 1353.45C1087.02 1343.51 1087.61 1333.11 1087.8 1330.52C1088.17 1325.37 1088.3 1319.46 1088.3 1313.25H1038.3H988.304C988.304 1315.73 988.277 1317.81 988.23 1319.53C988.182 1321.27 988.118 1322.47 988.063 1323.23C988.036 1323.59 988.017 1323.77 988.016 1323.78C988.012 1323.81 988.039 1323.56 988.117 1323.08C988.189 1322.64 988.357 1321.69 988.683 1320.4C988.852 1319.73 989.089 1318.87 989.417 1317.86C989.74 1316.86 990.203 1315.56 990.847 1314.05L1036.8 1333.75ZM1038.3 1313.25H1088.3V1143.75H1038.3H988.304V1313.25H1038.3ZM1038.3 1143.75H1088.3C1088.3 1137.56 1088.17 1131.65 1087.79 1126.51C1087.6 1123.97 1087.29 1120.85 1086.73 1117.6C1086.35 1115.4 1085.17 1108.67 1081.53 1101.39L1036.8 1123.75L992.083 1146.11C991.116 1144.18 990.441 1142.49 989.985 1141.24C989.521 1139.96 989.191 1138.86 988.962 1138.04C988.518 1136.43 988.292 1135.22 988.193 1134.65C988.086 1134.03 988.043 1133.66 988.038 1133.61C988.031 1133.55 988.045 1133.67 988.069 1133.99C988.12 1134.66 988.182 1135.8 988.23 1137.51C988.277 1139.2 988.304 1141.27 988.304 1143.75H1038.3ZM1036.8 1123.75L1082.76 1104.05C1075.9 1088.04 1063.49 1079.67 1055.08 1075.69C1046.86 1071.79 1038.94 1070.32 1033.51 1069.64L1027.3 1119.25L1021.1 1168.86C1021 1168.85 1017.34 1168.46 1012.28 1166.06C1007.04 1163.58 996.709 1157.12 990.847 1143.45L1036.8 1123.75ZM1027.3 1119.25L1033.62 1069.65L1006.12 1066.15L999.804 1115.75L993.492 1165.35L1020.99 1168.85L1027.3 1119.25ZM999.804 1115.75H1049.8V1101.75H999.804H949.804V1115.75H999.804ZM999.804 1101.75V1151.75H1092.8V1101.75V1051.75H999.804V1101.75ZM1092.8 1101.75H1042.8V1145.75H1092.8H1142.8V1101.75H1092.8ZM1092.8 1145.75L1136.27 1170.46C1141.91 1160.55 1147.58 1155.82 1152.56 1153.27L1129.8 1108.75L1107.05 1064.23C1082.03 1077.01 1063.03 1096.95 1049.34 1121.03L1092.8 1145.75ZM1129.8 1108.75L1152.93 1153.08C1162.05 1148.32 1169.51 1146.75 1175.8 1146.75V1096.75V1046.75C1151.44 1046.75 1128.23 1053.18 1106.68 1064.42L1129.8 1108.75ZM1175.8 1096.75V1146.75C1188.93 1146.75 1194.11 1150.39 1197.41 1154L1234.3 1120.25L1271.19 1086.5C1245.83 1058.78 1212.02 1046.75 1175.8 1046.75V1096.75ZM1234.3 1120.25L1197.41 1154C1200.73 1157.63 1205.8 1166.14 1205.8 1186.75H1255.8H1305.8C1305.8 1150.03 1296.54 1114.2 1271.19 1086.5L1234.3 1120.25ZM1255.8 1186.75H1205.8V1313.25H1255.8H1305.8V1186.75H1255.8ZM1255.8 1313.25H1205.8C1205.8 1319.46 1205.94 1325.37 1206.31 1330.52C1206.5 1333.11 1207.09 1343.51 1211.35 1353.45L1257.3 1333.75L1303.26 1314.05C1303.91 1315.56 1304.37 1316.86 1304.69 1317.86C1305.02 1318.87 1305.26 1319.73 1305.43 1320.4C1305.75 1321.69 1305.92 1322.64 1305.99 1323.08C1306.07 1323.56 1306.1 1323.81 1306.09 1323.78C1306.09 1323.77 1306.07 1323.59 1306.05 1323.23C1305.99 1322.47 1305.93 1321.27 1305.88 1319.53C1305.83 1317.81 1305.8 1315.73 1305.8 1313.25H1255.8ZM1257.3 1333.75L1212.58 1356.11C1220.64 1372.22 1234.09 1379.41 1241.03 1382.33C1248.5 1385.48 1255.64 1386.74 1260.6 1387.36L1266.8 1337.75L1273.01 1288.14C1273.05 1288.14 1273.65 1288.22 1274.66 1288.45C1275.63 1288.68 1277.47 1289.17 1279.83 1290.17C1283.6 1291.75 1294.97 1297.28 1302.03 1311.39L1257.3 1333.75ZM1266.8 1337.75L1260.49 1387.35L1287.99 1390.85L1294.3 1341.25L1300.62 1291.65L1273.12 1288.15L1266.8 1337.75ZM1544.33 1341.25H1594.33V1297.21L1550.64 1291.65L1544.33 1341.25ZM1544.33 1355.25V1405.25H1594.33V1355.25H1544.33ZM1451.33 1355.25H1401.33V1405.25H1451.33V1355.25ZM1451.33 1313.75H1501.33V1135.44L1408.62 1287.75L1451.33 1313.75ZM1419.83 1348.75L1447.84 1390.16L1447.97 1390.08L1448.1 1389.99L1419.83 1348.75ZM1312.33 1327.25L1271.97 1356.77L1272.22 1357.11L1272.47 1357.44L1312.33 1327.25ZM1316.33 1131.25L1278.05 1099.08L1277.92 1099.24L1277.78 1099.41L1316.33 1131.25ZM1448.33 1111.75L1421.01 1153.63L1498.33 1204.05V1111.75H1448.33ZM1446.83 1007.25L1400.87 1026.95L1401.45 1028.3L1402.11 1029.61L1446.83 1007.25ZM1437.33 1002.75L1431.02 1052.35L1431.07 1052.36L1431.13 1052.36L1437.33 1002.75ZM1409.83 999.25H1359.83V1043.29L1403.52 1048.85L1409.83 999.25ZM1409.83 985.25V935.25H1359.83V985.25H1409.83ZM1505.83 985.25H1555.83V935.25H1505.83V985.25ZM1507.33 1333.75L1461.37 1353.45L1461.95 1354.8L1462.61 1356.11L1507.33 1333.75ZM1516.83 1337.75L1523.14 1288.15L1523.09 1288.14L1523.03 1288.14L1516.83 1337.75ZM1360.83 1316.75L1404.92 1293.17V1293.17L1360.83 1316.75ZM1418.33 1328.25L1448.09 1368.43L1448.21 1368.34L1448.33 1368.25L1418.33 1328.25ZM1448.33 1286.25L1492.91 1308.89L1498.33 1298.22V1286.25H1448.33ZM1448.33 1135.25H1498.33V1114.54L1483.68 1099.89L1448.33 1135.25ZM1361.83 1141.25L1406.37 1163.97L1406.46 1163.79L1406.55 1163.61L1361.83 1141.25ZM1544.33 1341.25H1494.33V1355.25H1544.33H1594.33V1341.25H1544.33ZM1544.33 1355.25V1305.25H1451.33V1355.25V1405.25H1544.33V1355.25ZM1451.33 1355.25H1501.33V1313.75H1451.33H1401.33V1355.25H1451.33ZM1451.33 1313.75L1408.62 1287.75C1402.01 1298.61 1396.04 1304.44 1391.55 1307.51L1419.83 1348.75L1448.1 1389.99C1466.95 1377.06 1481.98 1359.55 1494.04 1339.75L1451.33 1313.75ZM1419.83 1348.75L1391.81 1307.34C1389.91 1308.62 1386.5 1310.25 1379.33 1310.25V1360.25V1410.25C1403.49 1410.25 1427.08 1404.21 1447.84 1390.16L1419.83 1348.75ZM1379.33 1360.25V1310.25C1366.71 1310.25 1359.24 1306.37 1352.18 1297.06L1312.33 1327.25L1272.47 1357.44C1298.75 1392.13 1335.94 1410.25 1379.33 1410.25V1360.25ZM1312.33 1327.25L1352.69 1297.73C1344.85 1287.02 1337.83 1267.68 1337.83 1233.75H1287.83H1237.83C1237.83 1279.82 1247.14 1322.81 1271.97 1356.77L1312.33 1327.25ZM1287.83 1233.75H1337.83V1223.75H1287.83H1237.83V1233.75H1287.83ZM1287.83 1223.75H1337.83C1337.83 1193.21 1345.23 1174.77 1354.88 1163.09L1316.33 1131.25L1277.78 1099.41C1249.42 1133.73 1237.83 1176.95 1237.83 1223.75H1287.83ZM1316.33 1131.25L1354.6 1163.42C1363.32 1153.05 1374.94 1146.75 1395.33 1146.75V1096.75V1046.75C1349.05 1046.75 1308 1063.45 1278.05 1099.08L1316.33 1131.25ZM1395.33 1096.75V1146.75C1406.56 1146.75 1414.55 1149.42 1421.01 1153.63L1448.33 1111.75L1475.64 1069.87C1451.43 1054.08 1424.09 1046.75 1395.33 1046.75V1096.75ZM1448.33 1111.75H1498.33V1027.25H1448.33H1398.33V1111.75H1448.33ZM1448.33 1027.25H1498.33C1498.33 1021.06 1498.2 1015.15 1497.81 1010.01C1497.62 1007.47 1497.32 1004.35 1496.75 1001.1C1496.37 998.905 1495.19 992.171 1491.55 984.889L1446.83 1007.25L1402.11 1029.61C1401.14 1027.68 1400.46 1025.99 1400.01 1024.74C1399.54 1023.46 1399.21 1022.36 1398.99 1021.53C1398.54 1019.93 1398.32 1018.72 1398.22 1018.15C1398.11 1017.53 1398.07 1017.16 1398.06 1017.11C1398.05 1017.05 1398.07 1017.17 1398.09 1017.49C1398.14 1018.16 1398.21 1019.3 1398.25 1021.01C1398.3 1022.7 1398.33 1024.77 1398.33 1027.25H1448.33ZM1446.83 1007.25L1492.79 987.553C1485.92 971.542 1473.51 963.168 1465.11 959.188C1456.88 955.291 1448.97 953.815 1443.53 953.136L1437.33 1002.75L1431.13 1052.36C1431.02 1052.35 1427.36 1051.96 1422.3 1049.56C1417.06 1047.08 1406.73 1040.62 1400.87 1026.95L1446.83 1007.25ZM1437.33 1002.75L1443.64 953.15L1416.14 949.65L1409.83 999.25L1403.52 1048.85L1431.02 1052.35L1437.33 1002.75ZM1409.83 999.25H1459.83V985.25H1409.83H1359.83V999.25H1409.83ZM1409.83 985.25V1035.25H1505.83V985.25V935.25H1409.83V985.25ZM1505.83 985.25H1455.83V1313.25H1505.83H1555.83V985.25H1505.83ZM1505.83 1313.25H1455.83C1455.83 1319.46 1455.96 1325.37 1456.34 1330.52C1456.53 1333.11 1457.11 1343.51 1461.37 1353.45L1507.33 1333.75L1553.29 1314.05C1553.93 1315.56 1554.39 1316.86 1554.72 1317.86C1555.04 1318.87 1555.28 1319.73 1555.45 1320.4C1555.78 1321.69 1555.94 1322.64 1556.02 1323.08C1556.09 1323.56 1556.12 1323.81 1556.12 1323.78C1556.11 1323.77 1556.1 1323.59 1556.07 1323.23C1556.01 1322.47 1555.95 1321.27 1555.9 1319.53C1555.86 1317.81 1555.83 1315.73 1555.83 1313.25H1505.83ZM1507.33 1333.75L1462.61 1356.11C1470.66 1372.22 1484.12 1379.41 1491.05 1382.33C1498.53 1385.48 1505.67 1386.74 1510.63 1387.36L1516.83 1337.75L1523.03 1288.14C1523.08 1288.14 1523.68 1288.22 1524.69 1288.45C1525.65 1288.68 1527.49 1289.17 1529.86 1290.17C1533.62 1291.75 1544.99 1297.28 1552.05 1311.39L1507.33 1333.75ZM1516.83 1337.75L1510.52 1387.35L1538.02 1390.85L1544.33 1341.25L1550.64 1291.65L1523.14 1288.15L1516.83 1337.75ZM1349.33 1248.75H1299.33C1299.33 1281.78 1303.06 1314.75 1316.74 1340.33L1360.83 1316.75L1404.92 1293.17C1403.26 1290.08 1399.33 1277.72 1399.33 1248.75H1349.33ZM1360.83 1316.75L1316.74 1340.33C1330.83 1366.68 1356.19 1388.25 1392.33 1388.25V1338.25V1288.25C1393.52 1288.25 1395.24 1288.42 1397.26 1289.02C1399.29 1289.64 1401.13 1290.54 1402.64 1291.58C1405.63 1293.62 1405.98 1295.16 1404.92 1293.17L1360.83 1316.75ZM1392.33 1338.25V1388.25C1414.53 1388.25 1433.41 1379.3 1448.09 1368.43L1418.33 1328.25L1388.57 1288.07C1386.97 1289.25 1386.49 1289.33 1387.13 1289.08C1387.87 1288.8 1389.7 1288.25 1392.33 1288.25V1338.25ZM1418.33 1328.25L1448.33 1368.25C1467.35 1353.98 1481.61 1331.13 1492.91 1308.89L1448.33 1286.25L1403.75 1263.61C1399.17 1272.63 1395.26 1279.06 1392.14 1283.44C1388.85 1288.05 1387.44 1288.91 1388.33 1288.25L1418.33 1328.25ZM1448.33 1286.25H1498.33V1135.25H1448.33H1398.33V1286.25H1448.33ZM1448.33 1135.25L1483.68 1099.89C1461.4 1077.61 1433.07 1066.25 1401.83 1066.25V1116.25V1166.25C1407.25 1166.25 1409.93 1167.56 1412.97 1170.6L1448.33 1135.25ZM1401.83 1116.25V1066.25C1384.87 1066.25 1367.43 1070.19 1351.58 1080.1C1335.77 1089.98 1324.62 1103.87 1317.11 1118.89L1361.83 1141.25L1406.55 1163.61C1407 1162.72 1407.15 1162.66 1406.8 1163.06C1406.42 1163.5 1405.68 1164.21 1404.58 1164.9C1403.47 1165.59 1402.44 1165.98 1401.74 1166.17C1401.08 1166.34 1401.03 1166.25 1401.83 1166.25V1116.25ZM1361.83 1141.25L1317.29 1118.53C1303.9 1144.76 1299.33 1176.2 1299.33 1208.75H1349.33H1399.33C1399.33 1183.97 1403.09 1170.4 1406.37 1163.97L1361.83 1141.25ZM1349.33 1208.75H1299.33V1248.75H1349.33H1399.33V1208.75H1349.33Z" fill="#32261F" mask="url(#path-10-outside-1_214_1914)"/>
<path d="M612.959 1452L616.035 1448.01L655.385 1478.34C662.989 1484.2 668.218 1489.89 671.074 1495.43C673.93 1500.96 674.99 1506.17 674.253 1511.06C673.612 1516.02 671.68 1520.59 668.457 1524.77L665.49 1528.62C661.681 1533.56 656.817 1536.63 650.896 1537.83C645.145 1539 638.736 1538.08 631.671 1535.05C637.943 1541.86 641.477 1548.67 642.276 1555.5C643.17 1562.4 641.346 1568.8 636.804 1574.69L633.727 1578.68C630.431 1582.96 626.393 1586.13 621.613 1588.21C616.907 1590.19 611.383 1590.47 605.041 1589.07C598.867 1587.65 591.93 1583.97 584.232 1578.03L541.318 1544.96L544.394 1540.97L553.005 1546.01C554.672 1546.99 555.868 1547.31 556.593 1546.96C557.391 1546.51 559.035 1544.68 561.525 1541.44L617.783 1468.45C620.274 1465.22 621.596 1463.2 621.751 1462.41C621.978 1461.53 621.405 1460.41 620.031 1459.04L612.959 1452ZM651.539 1483.33L640.276 1474.65L609.51 1514.57L620.773 1523.25C624.86 1526.4 629.011 1527.4 633.227 1526.25C637.515 1525.01 642.004 1521.35 646.692 1515.27L650.208 1510.71C654.969 1504.53 657.403 1499.21 657.51 1494.75C657.616 1490.28 655.626 1486.48 651.539 1483.33ZM620.492 1530.98L605.664 1519.56L573.25 1561.61L588.077 1573.04C592.354 1576.34 596.685 1577.4 601.069 1576.24C605.621 1575.05 610.424 1571.18 615.478 1564.62L619.104 1559.91C628.774 1547.37 629.236 1537.72 620.492 1530.98Z" fill="white"/>
<path d="M703.364 1524.93L705.759 1520.5L753.588 1546.33C764.674 1552.32 771.886 1559.42 775.224 1567.63C778.562 1575.85 777.979 1584.12 773.473 1592.46L771.506 1596.11C768.084 1602.44 763.434 1606.89 757.554 1609.44C751.675 1611.99 744.949 1612.45 737.376 1610.81L736.814 1659.2C736.826 1662.21 736.864 1664.41 736.927 1665.81C736.991 1667.21 737.201 1668.21 737.557 1668.81C738.077 1669.36 738.807 1670.03 739.749 1670.81L746.277 1675.77L743.882 1680.2L714.266 1664.21L716.87 1602.19L705.308 1595.95L685.976 1631.74C684.037 1635.33 683.026 1637.58 682.944 1638.49C682.918 1639.3 683.693 1640.26 685.268 1641.38L693.38 1647.2L690.985 1651.63L647.59 1628.19L649.986 1623.76L659.295 1627.35C661.098 1628.06 662.329 1628.18 662.988 1627.71C663.704 1627.14 665.032 1625.07 666.971 1621.48L710.768 1540.39C712.707 1536.8 713.689 1534.6 713.715 1533.8C713.797 1532.89 713.051 1531.87 711.476 1530.75L703.364 1524.93ZM750.594 1551.87L733.965 1542.89L708.302 1590.41L724.932 1599.39C729.577 1601.9 733.884 1602.38 737.852 1600.84C741.983 1599.25 746.158 1594.55 750.379 1586.74L754.057 1579.93C758.277 1572.12 759.89 1566.1 758.896 1561.88C758.007 1557.72 755.24 1554.38 750.594 1551.87Z" fill="white"/>
<path d="M873.54 1694.62L878.363 1696.08L869.382 1725.71L784.113 1699.87L785.575 1695.04L795.415 1696.71C797.322 1697.04 798.552 1696.91 799.106 1696.32C799.694 1695.62 800.58 1693.32 801.763 1689.42L828.498 1601.22C829.681 1597.31 830.205 1594.97 830.069 1594.17C829.969 1593.26 829.034 1592.42 827.266 1591.63L818.158 1587.55L819.62 1582.73L903.166 1608.05L894.185 1637.68L889.361 1636.22L889.645 1615.43C889.718 1613.95 889.612 1612.85 889.327 1612.13C889.191 1611.34 888.567 1610.71 887.453 1610.25C886.374 1609.67 884.457 1608.96 881.701 1608.13L851.727 1599.04L836.898 1647.97L856.536 1653.92C859.292 1654.75 861.262 1655.29 862.445 1655.52C863.663 1655.64 864.531 1655.46 865.05 1654.99C865.718 1654.44 866.433 1653.53 867.195 1652.26L875.215 1639.45L880.038 1640.92L867.036 1683.81L862.213 1682.35L862.653 1667.25C862.726 1665.76 862.62 1664.67 862.334 1663.95C862.199 1663.16 861.574 1662.53 860.461 1662.07C859.382 1661.49 857.464 1660.78 854.708 1659.95L835.071 1653.99L819.876 1704.12L851.572 1713.73C854.328 1714.57 856.298 1715.1 857.481 1715.33C858.699 1715.45 859.567 1715.28 860.086 1714.81C860.754 1714.26 861.469 1713.34 862.231 1712.07L873.54 1694.62Z" fill="white"/>
<path d="M1028.2 1736.25L998.676 1637.97L970.776 1736.25H955.116L930.096 1628.97C929.496 1626.21 929.016 1624.29 928.656 1623.21C928.296 1622.01 927.756 1621.23 927.036 1620.87C926.436 1620.51 925.476 1620.27 924.156 1620.15L914.256 1618.89V1613.85H964.116V1618.89L954.216 1620.15C952.296 1620.39 951.276 1620.87 951.156 1621.59C951.036 1622.31 951.396 1624.77 952.236 1628.97L970.956 1712.85L998.496 1613.85H1013.44L1042.78 1711.05L1061.86 1628.97C1062.82 1624.77 1063.18 1622.31 1062.94 1621.59C1062.7 1620.87 1061.68 1620.39 1059.88 1620.15L1049.98 1618.89V1613.85H1084.9V1618.89L1075 1620.15C1073.68 1620.27 1072.72 1620.51 1072.12 1620.87C1071.52 1621.23 1070.98 1622.01 1070.5 1623.21C1070.14 1624.29 1069.66 1626.21 1069.06 1628.97L1044.04 1736.25H1028.2Z" fill="white"/>
<path d="M1208.62 1683.54L1213.59 1682.7L1218.76 1713.23L1130.91 1728.11L1130.07 1723.14L1139.62 1720.24C1141.47 1719.68 1142.51 1719.02 1142.75 1718.25C1142.96 1717.36 1142.73 1714.91 1142.05 1710.88L1126.66 1620.02C1125.98 1616 1125.4 1613.66 1124.92 1613.01C1124.43 1612.24 1123.22 1611.9 1121.28 1611.98L1111.31 1612.39L1110.47 1607.42L1196.54 1592.85L1201.71 1623.37L1196.74 1624.21L1187.73 1605.48C1187.13 1604.12 1186.55 1603.18 1185.98 1602.67C1185.5 1602.02 1184.66 1601.74 1183.46 1601.82C1182.23 1601.78 1180.2 1602 1177.36 1602.49L1146.48 1607.72L1155.02 1658.12L1175.25 1654.69C1178.09 1654.21 1180.09 1653.81 1181.26 1653.49C1182.4 1653.05 1183.1 1652.51 1183.35 1651.86C1183.71 1651.07 1183.94 1649.93 1184.05 1648.45L1185.52 1633.42L1190.49 1632.58L1197.98 1676.77L1193.01 1677.61L1186.67 1663.89C1186.07 1662.53 1185.49 1661.6 1184.91 1661.09C1184.44 1660.44 1183.6 1660.15 1182.4 1660.24C1181.17 1660.2 1179.14 1660.42 1176.3 1660.9L1156.07 1664.33L1164.82 1715.97L1197.47 1710.44C1200.31 1709.96 1202.31 1709.56 1203.48 1709.24C1204.62 1708.81 1205.32 1708.26 1205.57 1707.61C1205.93 1706.82 1206.16 1705.69 1206.27 1704.21L1208.62 1683.54Z" fill="white"/>
<path d="M1213.2 1590.95L1210.93 1586.45L1259.5 1562.04C1270.76 1556.38 1280.71 1554.54 1289.36 1556.5C1298 1558.47 1304.45 1563.69 1308.71 1572.16L1310.57 1575.86C1313.8 1582.29 1314.78 1588.65 1313.51 1594.93C1312.23 1601.21 1308.75 1606.99 1303.08 1612.26L1342.42 1640.44C1344.89 1642.15 1346.72 1643.38 1347.9 1644.13C1349.08 1644.88 1350.02 1645.28 1350.72 1645.33C1351.47 1645.22 1352.44 1645 1353.62 1644.68L1361.42 1642.17L1363.68 1646.67L1333.61 1661.79L1284.26 1624.13L1272.52 1630.03L1290.79 1666.38C1292.62 1670.03 1293.89 1672.14 1294.59 1672.73C1295.23 1673.21 1296.47 1673.13 1298.29 1672.48L1307.7 1669.16L1309.97 1673.67L1265.9 1695.81L1263.63 1691.31L1271.91 1685.74C1273.52 1684.66 1274.32 1683.72 1274.32 1682.92C1274.27 1682.01 1273.32 1679.73 1271.49 1676.08L1230.11 1593.74C1228.28 1590.09 1227.04 1588.03 1226.39 1587.54C1225.69 1586.96 1224.43 1586.99 1222.61 1587.63L1213.2 1590.95ZM1262.33 1567.67L1245.45 1576.16L1269.7 1624.4L1286.58 1615.92C1291.3 1613.55 1294.16 1610.29 1295.18 1606.16C1296.24 1601.86 1294.78 1595.75 1290.79 1587.81L1287.32 1580.9C1283.33 1572.96 1279.32 1568.2 1275.29 1566.6C1271.37 1564.94 1267.05 1565.3 1262.33 1567.67Z" fill="white"/>
<path d="M1447.18 1583.04L1450.38 1586.93L1412.29 1618.27L1409.09 1614.38L1415.94 1607.11C1417.27 1605.71 1417.84 1604.61 1417.66 1603.83C1417.41 1602.95 1415.98 1600.94 1413.39 1597.79L1389.72 1569.01L1332.74 1544.8C1329.87 1543.58 1327.82 1542.79 1326.58 1542.41C1325.26 1541.94 1324.21 1541.8 1323.42 1541.98C1322.73 1542.08 1321.88 1542.47 1320.88 1543.14L1312.43 1548.45L1309.23 1544.56L1348.85 1511.97L1352.05 1515.86L1345.2 1523.12C1343.97 1524.45 1343.61 1525.44 1344.15 1526.09C1344.6 1526.65 1346.87 1527.89 1350.95 1529.82L1398.38 1550.93L1387.5 1499.74C1386.56 1495.39 1385.78 1492.92 1385.15 1492.35C1384.62 1491.7 1383.58 1491.86 1382.04 1492.82L1373.59 1498.13L1370.39 1494.24L1397.5 1471.94L1400.7 1475.83L1393.85 1483.1C1393 1483.95 1392.41 1484.75 1392.09 1485.48C1391.85 1486.14 1391.84 1487.16 1392.04 1488.55C1392.27 1489.76 1392.7 1491.89 1393.34 1494.94L1406.17 1555.01L1430.07 1584.06C1432.66 1587.21 1434.37 1589 1435.18 1589.42C1435.91 1589.75 1437.1 1589.39 1438.73 1588.36L1447.18 1583.04Z" fill="white"/>
<path d="M1024.66 246.249C1450.72 246.249 1796.16 592.085 1796.16 1018.75C1796.16 1445.41 1450.72 1791.25 1024.66 1791.25C598.592 1791.25 253.156 1445.41 253.156 1018.75C253.156 592.085 598.592 246.249 1024.66 246.249Z" stroke="white" stroke-width="40"/>
</svg>
